<svg width="1440" height="145" viewBox="0 0 1440 145" fill="none" xmlns="http://www.w3.org/2000/svg">
<path d="M917.056 144.739C814.132 144.739 732.736 108.847 654.005 74.1487C575.855 39.7048 495.074 4.06627 393.551 4.06627C292.028 4.06627 211.247 39.7048 133.131 74.1487C91.2374 92.6034 47.9424 111.694 1.87942 125.166L0 121.607C45.6871 108.237 88.8113 89.2226 130.5 70.8441C209.231 36.1461 290.627 0.253296 393.551 0.253296C496.475 0.253296 577.871 36.1461 656.602 70.8441C734.718 105.288 815.533 140.901 917.022 140.901C1018.51 140.901 1099.33 105.288 1177.44 70.8441C1256.17 36.1206 1337.57 0.253296 1440.49 0.253296V4.06627C1338.97 4.06627 1258.19 39.6794 1180.07 74.1232C1101.34 108.847 1019.95 144.714 917.022 144.714L917.056 144.739Z" fill="#7C7C7C"/>
</svg>
