<svg width="189" height="18" viewBox="0 0 189 18" fill="none" xmlns="http://www.w3.org/2000/svg">
<g opacity="0.52" clip-path="url(#clip0_734_3162)">
<path d="M2.34935 17.6149C2.2269 17.7012 2.07761 17.7407 1.92864 17.7259H0.543489C0.394589 17.7398 0.245596 17.7005 0.122778 17.6149C0.0746029 17.5542 0.0389189 17.4846 0.0178006 17.41C-0.00331763 17.3354 -0.00944881 17.2574 -0.000236495 17.1804V0.888584C-0.017497 0.734722 0.0267393 0.58027 0.122778 0.459073C0.245596 0.373481 0.394589 0.334142 0.543489 0.347992H9.97135C10.1203 0.333268 10.2696 0.372685 10.3921 0.459073C10.4413 0.519147 10.4778 0.588649 10.4994 0.663341C10.5209 0.738034 10.5271 0.816352 10.5175 0.893521V2.15984C10.5271 2.23701 10.5209 2.31533 10.4994 2.39002C10.4778 2.46471 10.4413 2.53422 10.3921 2.59429C10.2696 2.68068 10.1203 2.72009 9.97135 2.70537H2.77006C2.68726 2.69671 2.60416 2.71865 2.53633 2.76708C2.48929 2.82723 2.46725 2.90329 2.47482 2.97937V7.89901C2.46672 7.97513 2.48882 8.05139 2.53633 8.11129C2.60364 8.16081 2.68717 8.18286 2.77006 8.17301H9.10286C9.26152 8.15607 9.42068 8.20018 9.54817 8.29643C9.64566 8.42365 9.69059 8.58365 9.67365 8.74322V9.97745C9.6814 10.0526 9.67431 10.1286 9.65278 10.201C9.63125 10.2735 9.59571 10.3409 9.54817 10.3996C9.42161 10.4978 9.26195 10.543 9.10286 10.5254H2.77006C2.68717 10.5156 2.60364 10.5376 2.53633 10.5872C2.48921 10.6463 2.46712 10.7217 2.47482 10.797V17.1804C2.4844 17.2576 2.47822 17.3359 2.45665 17.4106C2.43507 17.4853 2.39857 17.5548 2.34935 17.6149Z" fill="#656565"/>
<path d="M16.1471 15.3044C16.218 15.3564 16.3063 15.3785 16.3931 15.3661H23.6805C23.8295 15.3514 23.9788 15.3908 24.1013 15.4772C24.1499 15.5376 24.1859 15.6072 24.207 15.6818C24.2282 15.7565 24.234 15.8347 24.2243 15.9117V17.1805C24.234 17.2575 24.2282 17.3356 24.207 17.4103C24.1859 17.485 24.1499 17.5546 24.1013 17.6149C23.9788 17.7013 23.8295 17.7407 23.6805 17.726H14.1543C14.0053 17.7407 13.856 17.7013 13.7336 17.6149C13.6849 17.5546 13.6489 17.485 13.6278 17.4103C13.6066 17.3356 13.6008 17.2575 13.6106 17.1805V0.888639C13.6008 0.811642 13.6066 0.733457 13.6278 0.658793C13.6489 0.584128 13.6849 0.51453 13.7336 0.45419C13.856 0.367803 14.0053 0.328386 14.1543 0.343109H15.5394C15.6884 0.328386 15.8377 0.367803 15.9601 0.45419C16.0088 0.51453 16.0448 0.584128 16.0659 0.658793C16.0871 0.733457 16.0929 0.811642 16.0831 0.888639V15.0946C16.0767 15.1702 16.0996 15.2454 16.1471 15.3044Z" fill="#656565"/>
<path d="M42.9323 4.44328C42.1747 3.10335 41.0694 1.9944 39.7339 1.23429C38.4837 0.524656 37.0806 0.129933 35.6449 0.0839844V2.45124C36.6082 2.51146 37.5446 2.79449 38.3807 3.27817C39.3469 3.83397 40.1426 4.64509 40.6811 5.62321C41.2529 6.66831 41.5429 7.84505 41.5225 9.03708C41.5387 10.2184 41.2442 11.3832 40.6688 12.4139C40.1221 13.4012 39.3185 14.2211 38.3438 14.7861C37.5169 15.2679 36.5913 15.5541 35.6375 15.6229V17.9852C37.0575 17.9267 38.4436 17.5317 39.6822 16.8325C41.0327 16.0736 42.15 14.9577 42.9126 13.6062C43.7016 12.2059 44.1066 10.6208 44.0862 9.0124C44.1116 7.41371 43.7134 5.83692 42.9323 4.44328ZM27.4029 4.50746C26.6146 5.9116 26.2097 7.49968 26.2293 9.11114C26.208 10.7025 26.6088 12.2708 27.3906 13.6556C28.1422 14.9891 29.2421 16.0917 30.5717 16.8448C31.8304 17.5592 33.2447 17.9525 34.6903 17.9902V15.6303C33.7111 15.5826 32.7573 15.3016 31.9077 14.8108C30.948 14.2537 30.1604 13.4413 29.6319 12.4633C29.0714 11.4321 28.7858 10.2732 28.8028 9.0988C28.7831 7.90292 29.073 6.72237 29.6442 5.67257C30.1463 4.75224 30.8722 3.97428 31.7545 3.41106C32.6368 2.84783 33.6467 2.51765 34.6903 2.45124V0.0864528C33.2632 0.142141 31.8706 0.542682 30.6308 1.25403C29.281 2.02514 28.1653 3.14965 27.4029 4.50746Z" fill="#656565"/>
<path d="M49.7622 17.6149C49.6394 17.7005 49.4904 17.7398 49.3415 17.726H47.9563C47.8074 17.7407 47.6581 17.7013 47.5356 17.6149C47.4864 17.5548 47.4499 17.4853 47.4283 17.4106C47.4067 17.336 47.4006 17.2576 47.4101 17.1805V0.888639C47.4006 0.81147 47.4067 0.733151 47.4283 0.658459C47.4499 0.583766 47.4864 0.514264 47.5356 0.45419C47.6581 0.367803 47.8074 0.328386 47.9563 0.343109H52.6826C57.385 0.343109 59.7354 2.1385 59.7338 5.72929C59.7338 6.92073 59.4369 7.90153 58.8431 8.67169C58.2046 9.47135 57.3428 10.0618 56.3681 10.3675L61.1165 17.6791L59.008 17.7161H58.0681L53.1771 9.80718C53.0929 9.70944 53.0413 9.58775 53.0295 9.45913C53.0295 9.32583 53.1525 9.25177 53.3985 9.23696C55.89 8.97037 57.1357 7.85298 57.1357 5.8848C57.1357 4.75918 56.7437 3.93636 55.9597 3.41634C55.1757 2.89632 54.0415 2.63548 52.5571 2.63384H50.1903C50.1035 2.62276 50.0157 2.64479 49.9442 2.69555C49.8937 2.7672 49.8717 2.85529 49.8827 2.9424V17.1805C49.8923 17.2573 49.8866 17.3352 49.8659 17.4098C49.8452 17.4844 49.8099 17.5541 49.7622 17.6149Z" fill="#656565"/>
<path d="M65.4758 17.615C65.353 17.7006 65.204 17.7399 65.0551 17.7261H63.6675C63.5186 17.7399 63.3696 17.7006 63.2468 17.615C63.1986 17.5544 63.1629 17.4847 63.1418 17.4101C63.1207 17.3356 63.1146 17.2575 63.1238 17.1805V0.888704C63.1146 0.811722 63.1207 0.733672 63.1418 0.659089C63.1629 0.584506 63.1986 0.514879 63.2468 0.454255C63.3696 0.368663 63.5186 0.329325 63.6675 0.343174H65.0551C65.204 0.329325 65.353 0.368663 65.4758 0.454255C65.524 0.514879 65.5597 0.584506 65.5808 0.659089C65.6019 0.733672 65.6081 0.811722 65.5988 0.888704V17.1805C65.6081 17.2575 65.6019 17.3356 65.5808 17.4101C65.5597 17.4847 65.524 17.5544 65.4758 17.615Z" fill="#656565"/>
<path d="M70.1483 17.726H68.2465L67.5576 17.7112L67.875 16.9707L76.2892 0L85.1266 17.726H82.2062L81.9602 16.9855L76.24 4.61849L70.1483 17.726Z" fill="#656565"/>
<path d="M98.7073 0.459164C98.8297 0.372776 98.979 0.333359 99.128 0.348083H100.513C100.662 0.333359 100.811 0.372776 100.934 0.459164C100.983 0.519238 101.02 0.58874 101.041 0.663433C101.063 0.738125 101.069 0.816443 101.059 0.893612V17.1854C101.059 17.731 100.892 18.005 100.567 18.005C100.414 17.9967 100.267 17.9406 100.147 17.8445C99.9216 17.6617 99.7148 17.4575 99.529 17.2348L89.4762 5.33684V17.1854C89.486 17.2624 89.4801 17.3406 89.459 17.4153C89.4378 17.49 89.4019 17.5595 89.3532 17.6199C89.2307 17.7063 89.0815 17.7457 88.9325 17.731H87.5473C87.3984 17.7457 87.2491 17.7063 87.1266 17.6199C87.078 17.5595 87.042 17.49 87.0208 17.4153C86.9997 17.3406 86.9938 17.2624 87.0036 17.1854V0.893612C86.988 0.679721 87.0305 0.465581 87.1266 0.274029C87.1684 0.207787 87.2273 0.154184 87.2971 0.118962C87.3668 0.0837405 87.4448 0.0682273 87.5227 0.0740842C87.6765 0.0830246 87.8236 0.13999 87.9435 0.237002C88.1641 0.415476 88.3631 0.619281 88.5364 0.844243L98.5842 12.7373V0.888676C98.5751 0.812469 98.5813 0.735208 98.6025 0.661442C98.6236 0.587677 98.6592 0.5189 98.7073 0.459164Z" fill="#656565"/>
<path d="M125.827 17.6149C125.705 17.7013 125.555 17.7407 125.407 17.726H124.021C123.872 17.7403 123.723 17.7009 123.601 17.6149C123.552 17.5546 123.516 17.485 123.495 17.4103C123.474 17.3356 123.468 17.2575 123.478 17.1805V10.254C123.484 10.178 123.462 10.1023 123.416 10.0417C123.345 9.99092 123.257 9.9689 123.17 9.97997H114.99C114.903 9.9689 114.815 9.99092 114.744 10.0417C114.697 10.1023 114.675 10.178 114.682 10.254V17.1805C114.691 17.2574 114.685 17.3355 114.664 17.4101C114.643 17.4847 114.607 17.5543 114.559 17.6149C114.436 17.7005 114.287 17.7398 114.138 17.726H112.753C112.604 17.7407 112.455 17.7013 112.332 17.6149C112.283 17.5548 112.247 17.4853 112.225 17.4106C112.204 17.336 112.197 17.2576 112.207 17.1805V0.888639C112.197 0.81147 112.204 0.733151 112.225 0.658459C112.247 0.583766 112.283 0.514264 112.332 0.45419C112.455 0.367803 112.604 0.328386 112.753 0.343109H114.158C114.307 0.329259 114.456 0.368598 114.579 0.45419C114.627 0.514814 114.663 0.584441 114.684 0.659024C114.705 0.733607 114.711 0.811657 114.702 0.888639V7.34859C114.697 7.42826 114.718 7.50732 114.763 7.57322C114.796 7.60306 114.835 7.62518 114.878 7.63799C114.921 7.6508 114.965 7.65397 115.009 7.64728H123.2C123.244 7.65397 123.288 7.6508 123.331 7.63799C123.373 7.62518 123.413 7.60306 123.446 7.57322C123.491 7.50732 123.512 7.42826 123.507 7.34859V0.893575C123.497 0.816579 123.503 0.738394 123.524 0.66373C123.546 0.589065 123.582 0.519467 123.63 0.459127C123.753 0.373141 123.902 0.333763 124.051 0.348046H125.436C125.585 0.333322 125.734 0.372739 125.857 0.459127C125.906 0.519201 125.942 0.588703 125.964 0.663396C125.986 0.738088 125.992 0.816407 125.982 0.893575V17.1854C125.987 17.2638 125.976 17.3424 125.949 17.4163C125.923 17.4902 125.881 17.5578 125.827 17.6149Z" fill="#656565"/>
<path d="M144.336 0.459157C144.205 0.371407 144.047 0.332137 143.89 0.348077H142.505C142.364 0.335373 142.223 0.37488 142.109 0.459157C142.06 0.519498 142.025 0.589096 142.003 0.66376C141.982 0.738424 141.976 0.816609 141.986 0.893606V10.2737C142.011 11.2593 141.82 12.2382 141.428 13.1421C141.089 13.9069 140.528 14.5513 139.819 14.991C139.209 15.354 138.523 15.5679 137.816 15.6155V17.9753C138.91 17.9198 139.98 17.6347 140.958 17.1385C142.059 16.5658 142.957 15.6668 143.531 14.5639C144.151 13.412 144.46 12.0008 144.459 10.3305V0.893606C144.469 0.816609 144.463 0.738424 144.442 0.66376C144.42 0.589096 144.384 0.519498 144.336 0.459157ZM133.87 14.2258C133.077 13.2828 132.681 11.9589 132.681 10.254V0.893606C132.691 0.816625 132.684 0.738574 132.663 0.663991C132.642 0.589408 132.606 0.519781 132.558 0.459157C132.428 0.373256 132.273 0.334101 132.118 0.348077H130.757C130.608 0.334227 130.459 0.373566 130.337 0.459157C130.288 0.519781 130.253 0.589408 130.232 0.663991C130.211 0.738574 130.204 0.816625 130.214 0.893606V10.4021C130.214 12.0905 130.511 13.5058 131.104 14.6479C131.639 15.7306 132.499 16.6168 133.565 17.1805C134.587 17.6964 135.712 17.9748 136.856 17.9951V15.6278C135.575 15.5439 134.58 15.0765 133.87 14.2258Z" fill="#656565"/>
<path d="M151.042 17.6149C150.92 17.7009 150.771 17.7403 150.622 17.726H149.237C149.088 17.7407 148.938 17.7013 148.816 17.6149C148.767 17.5548 148.73 17.4853 148.709 17.4106C148.687 17.336 148.681 17.2576 148.69 17.1805V0.888639C148.681 0.81147 148.687 0.733151 148.709 0.658459C148.73 0.583766 148.767 0.514264 148.816 0.45419C148.938 0.367803 149.088 0.328386 149.237 0.343109H153.963C158.664 0.343109 161.014 2.1385 161.014 5.72929C161.014 6.92073 160.717 7.90153 160.123 8.67169C159.485 9.47135 158.623 10.0618 157.648 10.3675L162.473 17.7161H159.312L154.457 9.80718C154.373 9.70944 154.322 9.58775 154.31 9.45913C154.31 9.32583 154.433 9.25177 154.679 9.23696C157.17 8.97037 158.416 7.85298 158.416 5.8848C158.416 4.75918 158.024 3.93636 157.24 3.41634C156.456 2.89632 155.323 2.63548 153.84 2.63384H151.463C151.376 2.62276 151.289 2.64479 151.217 2.69555C151.167 2.7672 151.145 2.85529 151.156 2.9424V17.1805C151.166 17.2568 151.162 17.3345 151.142 17.409C151.123 17.4836 151.089 17.5535 151.042 17.6149Z" fill="#656565"/>
<path d="M180.923 15.3044C180.994 15.3564 181.082 15.3785 181.169 15.3661H188.459C188.608 15.3514 188.757 15.3908 188.88 15.4772C188.928 15.5376 188.964 15.6072 188.985 15.6818C189.007 15.7565 189.012 15.8347 189.003 15.9117V17.1805C189.012 17.2575 189.007 17.3356 188.985 17.4103C188.964 17.485 188.928 17.5546 188.88 17.6149C188.757 17.7013 188.608 17.7407 188.459 17.726H178.93C178.781 17.7407 178.632 17.7013 178.509 17.6149C178.461 17.5546 178.425 17.485 178.404 17.4103C178.383 17.3356 178.377 17.2575 178.386 17.1805V0.888639C178.377 0.811642 178.383 0.733457 178.404 0.658793C178.425 0.584128 178.461 0.51453 178.509 0.45419C178.632 0.367803 178.781 0.328386 178.93 0.343109H180.315C180.464 0.328826 180.613 0.368204 180.736 0.45419C180.785 0.51453 180.821 0.584128 180.842 0.658793C180.863 0.733457 180.869 0.811642 180.859 0.888639V15.0946C180.853 15.1702 180.875 15.2454 180.923 15.3044Z" fill="#656565"/>
<path d="M2.47506 15.7314H0V17.7284H2.47506V15.7314Z" fill="#656565"/>
<path d="M9.67667 8.16809H7.08105V10.5255H9.67667V8.16809Z" fill="#656565"/>
<path d="M10.5181 0.348022H7.08105V2.7054H10.5181V0.348022Z" fill="#656565"/>
<path d="M16.0854 0.348022H13.6104V2.7054H16.0854V0.348022Z" fill="#656565"/>
<path d="M16.0854 15.3687H13.6104V17.726H16.0854V15.3687Z" fill="#656565"/>
<path d="M24.2265 15.3687H21.7515V17.726H24.2265V15.3687Z" fill="#656565"/>
<path d="M49.8852 0.348022H47.4102V2.7054H49.8852V0.348022Z" fill="#656565"/>
<path d="M65.5991 0.348022H63.124V2.7054H65.5991V0.348022Z" fill="#656565"/>
<path d="M65.5991 15.376H63.124V17.7334H65.5991V15.376Z" fill="#656565"/>
<path d="M49.8852 15.3687H47.4102V17.726H49.8852V15.3687Z" fill="#656565"/>
<path d="M89.4785 15.3687H87.0034V17.726H89.4785V15.3687Z" fill="#656565"/>
<path d="M101.059 0.348022H98.584V2.7054H101.059V0.348022Z" fill="#656565"/>
<path d="M114.692 0.288818H112.217V2.6462H114.692V0.288818Z" fill="#656565"/>
<path d="M114.692 15.6401H112.217V17.9975H114.692V15.6401Z" fill="#656565"/>
<path d="M125.953 15.6401H123.478V17.9975H125.953V15.6401Z" fill="#656565"/>
<path d="M125.953 0.288818H123.478V2.6462H125.953V0.288818Z" fill="#656565"/>
<path d="M132.682 0.288818H130.207V2.6462H132.682V0.288818Z" fill="#656565"/>
<path d="M144.461 0.288818H141.986V2.6462H144.461V0.288818Z" fill="#656565"/>
<path d="M151.165 15.3687H148.69V17.726H151.165V15.3687Z" fill="#656565"/>
<path d="M189.002 15.3687H186.527V17.726H189.002V15.3687Z" fill="#656565"/>
<path d="M180.861 15.3687H178.386V17.726H180.861V15.3687Z" fill="#656565"/>
<path d="M180.861 0.288818H178.386V2.6462H180.861V0.288818Z" fill="#656565"/>
<path d="M58.7961 14.1604L56.7646 15.4906L58.0488 17.4647L60.0803 16.1345L58.7961 14.1604Z" fill="#656565"/>
<path d="M3.43703 0.348022H0V2.7054H3.43703V0.348022Z" fill="#656565"/>
<path d="M174.87 0.288818H164.404V2.70544H174.87V0.288818Z" fill="#656565"/>
<path d="M174.87 7.82751H164.404V10.2441H174.87V7.82751Z" fill="#656565"/>
<path d="M174.87 15.339H164.404V17.7556H174.87V15.339Z" fill="#656565"/>
</g>
<defs>
<clipPath id="clip0_734_3162">
<rect width="189" height="18" fill="white"/>
</clipPath>
</defs>
</svg>
