<svg width="496" height="47" viewBox="0 0 496 47" fill="none" xmlns="http://www.w3.org/2000/svg">
<path d="M6.16627 45.9945C5.84492 46.2201 5.45313 46.323 5.06218 46.2846H1.42709C1.03633 46.3207 0.645318 46.218 0.323002 45.9945C0.196574 45.8362 0.102927 45.6544 0.0475054 45.4597C-0.00791604 45.2649 -0.0240063 45.0611 0.000169907 44.8601V2.32038C-0.0451274 1.91862 0.0709634 1.51533 0.323002 1.19887C0.645318 0.975384 1.03633 0.872666 1.42709 0.908829H26.169C26.5599 0.870384 26.9517 0.973306 27.2731 1.19887C27.4022 1.35573 27.498 1.53721 27.5547 1.73224C27.6113 1.92727 27.6275 2.13177 27.6024 2.33327V5.63977C27.6275 5.84126 27.6113 6.04576 27.5547 6.24079C27.498 6.43582 27.4022 6.6173 27.2731 6.77416C26.9517 6.99973 26.5599 7.10265 26.169 7.0642H7.27036C7.05307 7.0416 6.83498 7.09889 6.65698 7.22534C6.53353 7.38239 6.47569 7.58101 6.49556 7.77965V20.6254C6.47431 20.8241 6.53229 21.0233 6.65698 21.1797C6.83363 21.309 7.05284 21.3665 7.27036 21.3408H23.8898C24.3062 21.2966 24.7238 21.4118 25.0584 21.6631C25.3143 21.9953 25.4322 22.413 25.3877 22.8297V26.0524C25.4081 26.2487 25.3895 26.4471 25.333 26.6362C25.2765 26.8253 25.1832 27.0015 25.0584 27.1546C24.7263 27.4112 24.3073 27.529 23.8898 27.4833H7.27036C7.05284 27.4576 6.83363 27.5151 6.65698 27.6444C6.53331 27.7989 6.47534 27.9956 6.49556 28.1923V44.8601C6.52071 45.0616 6.50448 45.2661 6.44786 45.4612C6.39125 45.6562 6.29544 45.8377 6.16627 45.9945Z" fill="#DEDEDE"/>
<path d="M42.3749 39.9616C42.5609 40.0971 42.7926 40.155 43.0206 40.1227H62.1452C62.5361 40.0843 62.9279 40.1872 63.2493 40.4128C63.377 40.5703 63.4714 40.752 63.5269 40.947C63.5824 41.142 63.5978 41.3461 63.5721 41.5471V44.8601C63.5978 45.0611 63.5824 45.2653 63.5269 45.4602C63.4714 45.6552 63.377 45.8369 63.2493 45.9945C62.9279 46.2201 62.5361 46.323 62.1452 46.2845H37.145C36.7541 46.323 36.3623 46.2201 36.0409 45.9945C35.9132 45.8369 35.8188 45.6552 35.7633 45.4602C35.7078 45.2653 35.6925 45.0611 35.7181 44.8601V2.32033C35.6925 2.11928 35.7078 1.91513 35.7633 1.72017C35.8188 1.52522 35.9132 1.34349 36.0409 1.18593C36.3623 0.960367 36.7541 0.857444 37.145 0.89589H40.7801C41.1711 0.857444 41.5629 0.960367 41.8842 1.18593C42.0119 1.34349 42.1064 1.52522 42.1618 1.72017C42.2173 1.91513 42.2327 2.11928 42.207 2.32033V39.4137C42.19 39.6111 42.2502 39.8075 42.3749 39.9616Z" fill="#DEDEDE"/>
<path d="M112.669 11.6017C110.681 8.10303 107.78 5.20743 104.275 3.22268C100.994 1.36976 97.312 0.339094 93.5443 0.219116V6.40027C96.0723 6.55753 98.5297 7.29654 100.724 8.55949C103.26 10.0108 105.348 12.1287 106.761 14.6826C108.262 17.4115 109.023 20.4841 108.969 23.5967C109.012 26.6812 108.239 29.7225 106.729 32.414C105.294 34.9918 103.185 37.1326 100.627 38.608C98.457 39.866 96.028 40.6132 93.5249 40.793V46.9613C97.2515 46.8085 100.889 45.777 104.14 43.9513C107.684 41.9697 110.616 39.056 112.617 35.5271C114.688 31.8709 115.751 27.732 115.697 23.5322C115.764 19.3578 114.719 15.2407 112.669 11.6017ZM71.9145 11.7693C69.8457 15.4357 68.7833 19.5823 68.8346 23.79C68.7787 27.9451 69.8305 32.0404 71.8822 35.656C73.8548 39.138 76.7411 42.017 80.2306 43.9835C83.5338 45.8489 87.2453 46.8759 91.0391 46.9742V40.8124C88.4693 40.6876 85.9662 39.9541 83.7366 38.6725C81.2179 37.2178 79.151 35.0965 77.7642 32.5429C76.2932 29.8504 75.5437 26.8243 75.5883 23.7578C75.5366 20.6352 76.2974 17.5527 77.7965 14.8115C79.1141 12.4085 81.0192 10.3771 83.3346 8.90647C85.6499 7.43583 88.3003 6.5737 91.0391 6.40027V0.225562C87.2939 0.370971 83.6392 1.41683 80.3856 3.27425C76.8432 5.28768 73.9152 8.22392 71.9145 11.7693Z" fill="#DEDEDE"/>
<path d="M130.592 45.9945C130.27 46.218 129.879 46.3207 129.488 46.2845H125.853C125.462 46.323 125.07 46.2201 124.749 45.9945C124.62 45.8376 124.524 45.6562 124.467 45.4611C124.411 45.2661 124.395 45.0616 124.42 44.8601V2.32033C124.395 2.11883 124.411 1.91433 124.467 1.7193C124.524 1.52427 124.62 1.34279 124.749 1.18593C125.07 0.960367 125.462 0.857444 125.853 0.89589H138.256C150.597 0.89589 156.765 5.58386 156.761 14.9598C156.761 18.0708 155.982 20.6318 154.424 22.6427C152.748 24.7307 150.486 26.2724 147.928 27.0707L160.39 46.1621L154.856 46.2588H152.39L139.554 25.6076C139.333 25.3524 139.198 25.0347 139.167 24.6988C139.167 24.3508 139.49 24.1574 140.135 24.1187C146.674 23.4226 149.943 20.505 149.943 15.3659C149.943 12.4267 148.914 10.2783 146.857 8.92044C144.799 7.5626 141.823 6.88154 137.927 6.87724H131.716C131.488 6.84832 131.257 6.90583 131.07 7.03837C130.937 7.22546 130.88 7.45547 130.909 7.68292V44.8601C130.934 45.0607 130.919 45.2642 130.864 45.459C130.81 45.6537 130.718 45.8357 130.592 45.9945Z" fill="#DEDEDE"/>
<path d="M171.831 45.9945C171.509 46.218 171.118 46.3207 170.727 46.2845H167.085C166.695 46.3207 166.304 46.218 165.981 45.9945C165.855 45.8362 165.761 45.6544 165.706 45.4597C165.65 45.2649 165.634 45.0611 165.658 44.8601V2.32033C165.634 2.11933 165.65 1.91553 165.706 1.72078C165.761 1.52604 165.855 1.34424 165.981 1.18594C166.304 0.962451 166.695 0.859733 167.085 0.895897H170.727C171.118 0.859733 171.509 0.962451 171.831 1.18594C171.957 1.34424 172.051 1.52604 172.106 1.72078C172.162 1.91553 172.178 2.11933 172.154 2.32033V44.8601C172.178 45.0611 172.162 45.2649 172.106 45.4597C172.051 45.6544 171.957 45.8362 171.831 45.9945Z" fill="#DEDEDE"/>
<path d="M184.092 46.2846H179.101L177.293 46.2459L178.126 44.3123L200.208 0L223.4 46.2846H215.736L215.091 44.3509L200.079 12.0594L184.092 46.2846Z" fill="#DEDEDE"/>
<path d="M259.041 1.19883C259.362 0.973259 259.754 0.870337 260.145 0.908782H263.78C264.171 0.870337 264.563 0.973259 264.884 1.19883C265.013 1.35569 265.109 1.53716 265.166 1.73219C265.222 1.92723 265.239 2.13172 265.213 2.33322V44.873C265.213 46.2974 264.774 47.0129 263.922 47.0129C263.519 46.9914 263.133 46.8449 262.818 46.5939C262.228 46.1166 261.685 45.5835 261.197 45.0019L234.815 13.935V44.873C234.841 45.074 234.826 45.2782 234.77 45.4731C234.715 45.6681 234.62 45.8498 234.493 46.0074C234.171 46.233 233.779 46.3359 233.389 46.2974H229.753C229.362 46.3359 228.971 46.233 228.649 46.0074C228.522 45.8498 228.427 45.6681 228.372 45.4731C228.316 45.2782 228.301 45.074 228.327 44.873V2.33322C228.285 1.77472 228.397 1.21558 228.649 0.715419C228.759 0.542452 228.913 0.402489 229.097 0.310521C229.28 0.218554 229.484 0.178047 229.689 0.19334C230.092 0.216685 230.478 0.365429 230.793 0.618738C231.372 1.08475 231.894 1.61691 232.349 2.20431L258.718 33.2583V2.32033C258.694 2.12135 258.71 1.91961 258.766 1.727C258.821 1.53439 258.915 1.3548 259.041 1.19883Z" fill="#DEDEDE"/>
<path d="M330.213 45.9945C329.891 46.2201 329.499 46.323 329.108 46.2845H325.473C325.082 46.3218 324.691 46.219 324.369 45.9945C324.242 45.8369 324.147 45.6552 324.092 45.4602C324.036 45.2653 324.021 45.0611 324.046 44.8601V26.7743C324.064 26.5759 324.006 26.3782 323.885 26.2199C323.698 26.0874 323.467 26.0299 323.239 26.0588H301.771C301.543 26.0299 301.313 26.0874 301.125 26.2199C301.004 26.3782 300.947 26.5759 300.964 26.7743V44.8601C300.988 45.0611 300.972 45.2649 300.917 45.4596C300.861 45.6544 300.768 45.8362 300.641 45.9945C300.319 46.218 299.928 46.3207 299.537 46.2845H295.902C295.511 46.323 295.119 46.2201 294.798 45.9945C294.669 45.8376 294.573 45.6562 294.516 45.4611C294.46 45.2661 294.443 45.0616 294.469 44.8601V2.32033C294.443 2.11883 294.46 1.91433 294.516 1.7193C294.573 1.52427 294.669 1.34279 294.798 1.18593C295.119 0.960367 295.511 0.857444 295.902 0.89589H299.589C299.979 0.859726 300.37 0.962444 300.693 1.18593C300.819 1.34423 300.913 1.52603 300.968 1.72078C301.024 1.91552 301.04 2.11932 301.016 2.32033V19.188C301.002 19.396 301.059 19.6025 301.177 19.7745C301.264 19.8524 301.366 19.9102 301.478 19.9436C301.59 19.9771 301.707 19.9854 301.823 19.9679H323.317C323.432 19.9854 323.55 19.9771 323.661 19.9436C323.773 19.9102 323.876 19.8524 323.963 19.7745C324.08 19.6025 324.137 19.396 324.124 19.188V2.33322C324.098 2.13217 324.114 1.92802 324.169 1.73307C324.225 1.53811 324.319 1.35638 324.447 1.19882C324.769 0.974305 325.16 0.871486 325.551 0.908781H329.186C329.577 0.870335 329.969 0.973257 330.29 1.19882C330.419 1.35568 330.515 1.53716 330.572 1.73219C330.628 1.92722 330.644 2.13172 330.619 2.33322V44.873C330.632 45.0778 330.603 45.283 330.533 45.476C330.463 45.6689 330.354 45.8454 330.213 45.9945Z" fill="#DEDEDE"/>
<path d="M378.786 1.19883C378.442 0.969703 378.029 0.867164 377.617 0.908785H373.982C373.612 0.875614 373.242 0.978772 372.943 1.19883C372.815 1.35638 372.721 1.53811 372.665 1.73307C372.61 1.92803 372.594 2.13218 372.62 2.33322V26.8258C372.684 29.3991 372.184 31.9553 371.154 34.3154C370.266 36.3124 368.794 37.9951 366.932 39.143C365.332 40.0909 363.532 40.6495 361.676 40.7737V46.9355C364.547 46.7905 367.356 46.0462 369.921 44.7505C372.81 43.2549 375.168 40.9078 376.675 38.028C378.302 35.0201 379.113 31.3355 379.109 26.9741V2.33322C379.134 2.13218 379.119 1.92803 379.064 1.73307C379.008 1.53811 378.914 1.35638 378.786 1.19883ZM351.319 37.1449C349.24 34.6828 348.201 31.2259 348.201 26.7743V2.33322C348.225 2.13222 348.209 1.92842 348.153 1.73367C348.098 1.53893 348.004 1.35712 347.878 1.19883C347.537 0.974531 347.129 0.872293 346.722 0.908785H343.152C342.761 0.872622 342.37 0.97534 342.048 1.19883C341.921 1.35712 341.828 1.53893 341.772 1.73367C341.717 1.92842 341.701 2.13222 341.725 2.33322V27.161C341.725 31.5696 342.504 35.265 344.062 38.2471C345.464 41.0742 347.724 43.3881 350.519 44.8601C353.202 46.2072 356.155 46.9341 359.158 46.9871V40.8059C355.796 40.5868 353.183 39.3665 351.319 37.1449Z" fill="#DEDEDE"/>
<path d="M396.387 45.9945C396.065 46.219 395.673 46.3218 395.283 46.2845H391.648C391.257 46.323 390.865 46.2201 390.543 45.9945C390.414 45.8376 390.318 45.6562 390.262 45.4611C390.205 45.2661 390.189 45.0616 390.214 44.8601V2.32033C390.189 2.11883 390.205 1.91433 390.262 1.7193C390.318 1.52427 390.414 1.34279 390.543 1.18593C390.865 0.960367 391.257 0.857444 391.648 0.89589H404.051C416.387 0.89589 422.556 5.58386 422.556 14.9598C422.556 18.0708 421.776 20.6318 420.218 22.6427C418.542 24.7307 416.281 26.2724 413.723 27.0707L426.384 46.2588H418.088L405.349 25.6076C405.128 25.3524 404.992 25.0347 404.961 24.6988C404.961 24.3508 405.284 24.1574 405.93 24.1187C412.468 23.4226 415.737 20.505 415.737 15.3659C415.737 12.4267 414.709 10.2783 412.651 8.92044C410.593 7.5626 407.619 6.88154 403.728 6.87724H397.491C397.263 6.84832 397.033 6.90583 396.845 7.03837C396.712 7.22546 396.655 7.45547 396.684 7.68292V44.8601C396.711 45.0594 396.7 45.2622 396.649 45.4569C396.598 45.6516 396.509 45.8343 396.387 45.9945Z" fill="#DEDEDE"/>
<path d="M474.803 39.9616C474.989 40.0971 475.22 40.155 475.448 40.1227H494.579C494.97 40.0843 495.362 40.1872 495.683 40.4128C495.811 40.5703 495.906 40.752 495.961 40.947C496.017 41.142 496.032 41.3461 496.006 41.5471V44.8601C496.032 45.0611 496.017 45.2653 495.961 45.4602C495.906 45.6552 495.811 45.8369 495.683 45.9945C495.362 46.2201 494.97 46.323 494.579 46.2845H469.573C469.182 46.323 468.79 46.2201 468.469 45.9945C468.341 45.8369 468.247 45.6552 468.191 45.4602C468.136 45.2653 468.12 45.0611 468.146 44.8601V2.32033C468.12 2.11928 468.136 1.91513 468.191 1.72017C468.247 1.52522 468.341 1.34349 468.469 1.18593C468.79 0.960367 469.182 0.857444 469.573 0.89589H473.208C473.599 0.858595 473.99 0.961414 474.312 1.18593C474.44 1.34349 474.534 1.52522 474.59 1.72017C474.645 1.91513 474.66 2.11928 474.635 2.32033V39.4137C474.618 39.6111 474.678 39.8075 474.803 39.9616Z" fill="#DEDEDE"/>
<path d="M6.49539 41.0767H0V46.291H6.49539V41.0767Z" fill="#DEDEDE"/>
<path d="M25.3943 21.3279H18.5825V27.4833H25.3943V21.3279Z" fill="#DEDEDE"/>
<path d="M27.6025 0.908813H18.5825V7.06419H27.6025V0.908813Z" fill="#DEDEDE"/>
<path d="M42.2137 0.908813H35.7183V7.06419H42.2137V0.908813Z" fill="#DEDEDE"/>
<path d="M42.2137 40.1292H35.7183V46.2846H42.2137V40.1292Z" fill="#DEDEDE"/>
<path d="M63.5789 40.1292H57.0835V46.2846H63.5789V40.1292Z" fill="#DEDEDE"/>
<path d="M130.915 0.908813H124.42V7.06419H130.915V0.908813Z" fill="#DEDEDE"/>
<path d="M172.154 0.908813H165.658V7.06419H172.154V0.908813Z" fill="#DEDEDE"/>
<path d="M172.154 40.1485H165.658V46.3039H172.154V40.1485Z" fill="#DEDEDE"/>
<path d="M130.915 40.1292H124.42V46.2846H130.915V40.1292Z" fill="#DEDEDE"/>
<path d="M234.822 40.1292H228.327V46.2846H234.822V40.1292Z" fill="#DEDEDE"/>
<path d="M265.214 0.908813H258.718V7.06419H265.214V0.908813Z" fill="#DEDEDE"/>
<path d="M300.99 0.754089H294.494V6.90947H300.99V0.754089Z" fill="#DEDEDE"/>
<path d="M300.99 40.8382H294.494V46.9936H300.99V40.8382Z" fill="#DEDEDE"/>
<path d="M330.542 40.8382H324.046V46.9936H330.542V40.8382Z" fill="#DEDEDE"/>
<path d="M330.542 0.754089H324.046V6.90947H330.542V0.754089Z" fill="#DEDEDE"/>
<path d="M348.201 0.754089H341.706V6.90947H348.201V0.754089Z" fill="#DEDEDE"/>
<path d="M379.116 0.754089H372.62V6.90947H379.116V0.754089Z" fill="#DEDEDE"/>
<path d="M396.71 40.1292H390.214V46.2846H396.71V40.1292Z" fill="#DEDEDE"/>
<path d="M496.006 40.1292H489.511V46.2846H496.006V40.1292Z" fill="#DEDEDE"/>
<path d="M474.641 40.1292H468.146V46.2846H474.641V40.1292Z" fill="#DEDEDE"/>
<path d="M474.641 0.754089H468.146V6.90947H474.641V0.754089Z" fill="#DEDEDE"/>
<path d="M154.301 36.9744L148.97 40.4478L152.34 45.6025L157.671 42.1292L154.301 36.9744Z" fill="#DEDEDE"/>
<path d="M9.01994 0.908813H0V7.06419H9.01994V0.908813Z" fill="#DEDEDE"/>
<path d="M458.92 0.754089H431.453V7.06416H458.92V0.754089Z" fill="#DEDEDE"/>
<path d="M458.92 20.4384H431.453V26.7485H458.92V20.4384Z" fill="#DEDEDE"/>
<path d="M458.92 40.0518H431.453V46.3619H458.92V40.0518Z" fill="#DEDEDE"/>
</svg>
