<svg width="274" height="26" viewBox="0 0 274 26" fill="none" xmlns="http://www.w3.org/2000/svg">
<path d="M3.40644 25.4438C3.22892 25.5686 3.01249 25.6255 2.79652 25.6043H0.788427C0.572561 25.6243 0.356561 25.5674 0.178508 25.4438C0.108666 25.3562 0.0569336 25.2557 0.0263177 25.1479C-0.00429816 25.0402 -0.0131867 24.9275 0.000168677 24.8163V1.28363C-0.0248544 1.06139 0.0392764 0.838289 0.178508 0.663227C0.356561 0.539595 0.572561 0.482772 0.788427 0.502777H14.4563C14.6723 0.48151 14.8887 0.538445 15.0662 0.663227C15.1376 0.750001 15.1905 0.850393 15.2218 0.958282C15.2531 1.06617 15.262 1.1793 15.2481 1.29076V3.11989C15.262 3.23136 15.2531 3.34448 15.2218 3.45237C15.1905 3.56026 15.1376 3.66066 15.0662 3.74743C14.8887 3.87221 14.6723 3.92915 14.4563 3.90788H4.01636C3.89633 3.89537 3.77585 3.92707 3.67752 3.99702C3.60932 4.0839 3.57737 4.19377 3.58835 4.30365V11.4098C3.57661 11.5198 3.60864 11.6299 3.67752 11.7164C3.77511 11.788 3.8962 11.8198 4.01636 11.8056H13.1973C13.4273 11.7811 13.658 11.8448 13.8428 11.9839C13.9842 12.1676 14.0493 12.3987 14.0247 12.6292V14.412C14.036 14.5206 14.0257 14.6303 13.9945 14.7349C13.9633 14.8396 13.9117 14.937 13.8428 15.0217C13.6593 15.1637 13.4279 15.2289 13.1973 15.2035H4.01636C3.8962 15.1893 3.77511 15.2212 3.67752 15.2927C3.6092 15.3781 3.57718 15.487 3.58835 15.5958V24.8163C3.60224 24.9277 3.59327 25.0409 3.562 25.1488C3.53072 25.2566 3.4778 25.357 3.40644 25.4438Z" fill="black"/>
<path d="M23.4091 22.1064C23.5119 22.1814 23.6398 22.2134 23.7658 22.1955H34.3306C34.5466 22.1743 34.763 22.2312 34.9405 22.356C35.0111 22.4431 35.0632 22.5437 35.0939 22.6515C35.1245 22.7594 35.133 22.8723 35.1188 22.9835V24.8162C35.133 24.9274 35.1245 25.0403 35.0939 25.1482C35.0632 25.256 35.0111 25.3566 34.9405 25.4437C34.763 25.5685 34.5466 25.6255 34.3306 25.6042H20.52C20.304 25.6255 20.0876 25.5685 19.9101 25.4437C19.8396 25.3566 19.7874 25.256 19.7567 25.1482C19.7261 25.0403 19.7176 24.9274 19.7318 24.8162V1.28356C19.7176 1.17234 19.7261 1.05941 19.7567 0.951562C19.7874 0.843714 19.8396 0.743183 19.9101 0.656025C20.0876 0.531243 20.304 0.474308 20.52 0.495575H22.5281C22.7441 0.474308 22.9605 0.531243 23.138 0.656025C23.2086 0.743183 23.2607 0.843714 23.2914 0.951562C23.322 1.05941 23.3305 1.17234 23.3164 1.28356V21.8033C23.307 21.9125 23.3402 22.0211 23.4091 22.1064Z" fill="black"/>
<path d="M62.2405 6.41798C61.1421 4.48253 59.5398 2.88071 57.6036 1.78276C55.7912 0.757741 53.757 0.187586 51.6757 0.121216V3.54058C53.0722 3.62757 54.4297 4.03639 55.6419 4.73504C57.0426 5.53787 58.1961 6.70949 58.9769 8.12231C59.8058 9.63191 60.2263 11.3316 60.1967 13.0535C60.2201 14.7598 59.7932 16.4422 58.959 17.9311C58.1664 19.3572 57.0014 20.5414 55.5884 21.3576C54.3895 22.0535 53.0477 22.4669 51.665 22.5664V25.9786C53.7236 25.8941 55.733 25.3235 57.5287 24.3135C59.4866 23.2173 61.1064 21.6055 62.2119 19.6533C63.3558 17.6307 63.9429 15.3411 63.9133 13.0178C63.9502 10.7086 63.3729 8.43101 62.2405 6.41798ZM39.7269 6.51068C38.5841 8.53889 37.9972 10.8328 38.0256 13.1604C37.9947 15.459 38.5757 17.7245 39.7091 19.7246C40.7988 21.6508 42.3933 23.2435 44.321 24.3313C46.1457 25.3632 48.196 25.9313 50.2917 25.9857V22.5771C48.8722 22.508 47.4894 22.1023 46.2577 21.3933C44.8664 20.5886 43.7246 19.4151 42.9584 18.0025C42.1459 16.513 41.7318 14.839 41.7564 13.1426C41.7279 11.4152 42.1482 9.70999 42.9763 8.19362C43.7042 6.86426 44.7566 5.74053 46.0356 4.92698C47.3147 4.11344 48.7788 3.63652 50.2917 3.54058V0.124781C48.2228 0.205221 46.2039 0.783778 44.4066 1.81129C42.4497 2.9251 40.8322 4.5494 39.7269 6.51068Z" fill="black"/>
<path d="M72.1418 25.4437C71.9637 25.5674 71.7477 25.6242 71.5319 25.6042H69.5238C69.3078 25.6255 69.0914 25.5685 68.9138 25.4437C68.8425 25.357 68.7896 25.2566 68.7583 25.1487C68.727 25.0408 68.718 24.9277 68.7319 24.8162V1.28356C68.718 1.1721 68.727 1.05897 68.7583 0.95108C68.7896 0.84319 68.8425 0.742799 68.9138 0.656025C69.0914 0.531243 69.3078 0.474308 69.5238 0.495575H76.3755C83.1928 0.495575 86.6003 3.08892 86.5979 8.27561C86.5979 9.99658 86.1675 11.4133 85.3068 12.5257C84.381 13.6808 83.1317 14.5337 81.7186 14.9753L88.6025 25.5364L85.5457 25.5899H84.1832L77.0925 14.1659C76.9704 14.0247 76.8956 13.8489 76.8785 13.6632C76.8785 13.4706 77.0568 13.3636 77.4135 13.3423C81.0254 12.9572 82.8314 11.3432 82.8314 8.50024C82.8314 6.87435 82.2631 5.68583 81.1265 4.93469C79.9899 4.18354 78.3456 3.80678 76.1936 3.80441H72.7624C72.6365 3.78841 72.5092 3.82022 72.4057 3.89355C72.3324 3.99704 72.3005 4.12428 72.3165 4.2501V24.8162C72.3304 24.9272 72.3221 25.0398 72.2921 25.1475C72.2621 25.2552 72.211 25.3559 72.1418 25.4437Z" fill="black"/>
<path d="M94.9227 25.4438C94.7447 25.5674 94.5287 25.6242 94.3128 25.6042H92.3011C92.0853 25.6242 91.8693 25.5674 91.6912 25.4438C91.6214 25.3562 91.5696 25.2557 91.539 25.1479C91.5084 25.0402 91.4995 24.9274 91.5129 24.8163V1.28362C91.4995 1.17242 91.5084 1.05968 91.539 0.95195C91.5696 0.844219 91.6214 0.743646 91.6912 0.656078C91.8693 0.532446 92.0853 0.475623 92.3011 0.495629H94.3128C94.5287 0.475623 94.7447 0.532446 94.9227 0.656078C94.9925 0.743646 95.0443 0.844219 95.0749 0.95195C95.1055 1.05968 95.1144 1.17242 95.101 1.28362V24.8163C95.1144 24.9274 95.1055 25.0402 95.0749 25.1479C95.0443 25.2557 94.9925 25.3562 94.9227 25.4438Z" fill="black"/>
<path d="M101.696 25.6042H98.9391L97.9404 25.5828L98.4005 24.5132L110.599 0L123.411 25.6042H119.177L118.82 24.5346L110.528 6.67115L101.696 25.6042Z" fill="black"/>
<path d="M143.099 0.663196C143.277 0.538414 143.493 0.481478 143.709 0.502746H145.717C145.933 0.481478 146.15 0.538414 146.327 0.663196C146.399 0.749969 146.452 0.850361 146.483 0.958251C146.514 1.06614 146.523 1.17927 146.509 1.29073V24.8234C146.509 25.6114 146.267 26.0071 145.796 26.0071C145.573 25.9952 145.36 25.9142 145.186 25.7754C144.86 25.5113 144.56 25.2164 144.291 24.8947L129.717 7.70873V24.8234C129.731 24.9346 129.722 25.0475 129.692 25.1554C129.661 25.2632 129.609 25.3638 129.538 25.4509C129.361 25.5757 129.144 25.6326 128.929 25.6114H126.92C126.704 25.6326 126.488 25.5757 126.31 25.4509C126.24 25.3638 126.188 25.2632 126.157 25.1554C126.126 25.0475 126.118 24.9346 126.132 24.8234V1.29073C126.109 0.981778 126.171 0.672465 126.31 0.395779C126.371 0.300096 126.456 0.222669 126.558 0.171793C126.659 0.120918 126.772 0.0985099 126.885 0.10697C127.108 0.119884 127.321 0.202168 127.495 0.342296C127.814 0.600092 128.103 0.894476 128.354 1.21942L142.921 18.3982V1.2836C142.908 1.17353 142.917 1.06193 142.947 0.955376C142.978 0.848826 143.03 0.749481 143.099 0.663196Z" fill="black"/>
<path d="M182.416 25.4437C182.239 25.5685 182.022 25.6255 181.806 25.6042H179.798C179.582 25.6248 179.366 25.5679 179.188 25.4437C179.118 25.3566 179.065 25.256 179.035 25.1482C179.004 25.0403 178.996 24.9274 179.01 24.8162V14.8113C179.019 14.7015 178.988 14.5922 178.921 14.5046C178.817 14.4313 178.69 14.3995 178.564 14.4155H166.704C166.579 14.3995 166.451 14.4313 166.348 14.5046C166.281 14.5922 166.249 14.7015 166.259 14.8113V24.8162C166.272 24.9274 166.263 25.0401 166.232 25.1479C166.202 25.2556 166.15 25.3562 166.08 25.4437C165.902 25.5674 165.686 25.6242 165.47 25.6042H163.462C163.246 25.6255 163.03 25.5685 162.852 25.4437C162.781 25.357 162.728 25.2566 162.697 25.1487C162.665 25.0408 162.657 24.9277 162.67 24.8162V1.28356C162.657 1.1721 162.665 1.05897 162.697 0.95108C162.728 0.84319 162.781 0.742799 162.852 0.656025C163.03 0.531243 163.246 0.474308 163.462 0.495575H165.499C165.715 0.47557 165.931 0.532393 166.109 0.656025C166.179 0.743593 166.23 0.844165 166.261 0.951896C166.292 1.05963 166.3 1.17237 166.287 1.28356V10.6146C166.28 10.7297 166.311 10.8439 166.376 10.9391C166.424 10.9822 166.481 11.0141 166.543 11.0326C166.604 11.0511 166.669 11.0557 166.733 11.046H178.607C178.67 11.0557 178.735 11.0511 178.797 11.0326C178.859 11.0141 178.916 10.9822 178.963 10.9391C179.029 10.8439 179.06 10.7297 179.053 10.6146V1.29069C179.038 1.17948 179.047 1.06654 179.078 0.958693C179.108 0.850845 179.16 0.750314 179.231 0.663156C179.409 0.538954 179.625 0.482075 179.841 0.502706H181.849C182.065 0.481439 182.281 0.538374 182.459 0.663156C182.53 0.74993 182.583 0.850322 182.614 0.958211C182.646 1.0661 182.655 1.17923 182.641 1.29069V24.8233C182.648 24.9366 182.632 25.0502 182.593 25.1569C182.554 25.2636 182.494 25.3613 182.416 25.4437Z" fill="black"/>
<path d="M209.249 0.663146C209.059 0.536395 208.831 0.479671 208.603 0.502696H206.595C206.391 0.484346 206.186 0.541412 206.021 0.663146C205.95 0.750304 205.898 0.850835 205.868 0.958683C205.837 1.06653 205.828 1.17947 205.843 1.29068V14.8398C205.878 16.2633 205.602 17.6774 205.033 18.9829C204.542 20.0877 203.729 21.0185 202.7 21.6535C201.817 22.1779 200.822 22.4869 199.797 22.5556V25.9643C201.383 25.8841 202.935 25.4723 204.352 24.7556C205.948 23.9282 207.25 22.6298 208.083 21.0367C208.981 19.3728 209.43 17.3345 209.427 14.9218V1.29068C209.441 1.17947 209.433 1.06653 209.402 0.958683C209.372 0.850835 209.319 0.750304 209.249 0.663146ZM194.076 20.5482C192.927 19.1862 192.353 17.2739 192.353 14.8113V1.29068C192.366 1.17949 192.357 1.06675 192.327 0.959017C192.296 0.851286 192.245 0.750714 192.175 0.663146C191.986 0.539066 191.761 0.482509 191.536 0.502696H189.564C189.348 0.482691 189.132 0.539513 188.954 0.663146C188.884 0.750714 188.832 0.851286 188.802 0.959017C188.771 1.06675 188.762 1.17949 188.776 1.29068V15.0252C188.776 17.464 189.206 19.5083 190.067 21.1579C190.841 22.7218 192.089 24.0019 193.634 24.8162C195.116 25.5614 196.747 25.9635 198.406 25.9928V22.5735C196.549 22.4522 195.105 21.7772 194.076 20.5482Z" fill="black"/>
<path d="M218.972 25.4437C218.794 25.5679 218.578 25.6248 218.362 25.6042H216.354C216.138 25.6255 215.921 25.5685 215.744 25.4437C215.673 25.357 215.62 25.2566 215.588 25.1487C215.557 25.0408 215.548 24.9277 215.562 24.8162V1.28356C215.548 1.1721 215.557 1.05897 215.588 0.95108C215.62 0.84319 215.673 0.742799 215.744 0.656025C215.921 0.531243 216.138 0.474308 216.354 0.495575H223.206C230.021 0.495575 233.428 3.08892 233.428 8.27561C233.428 9.99658 232.998 11.4133 232.137 12.5257C231.211 13.6808 229.962 14.5337 228.549 14.9753L235.543 25.5899H230.96L223.923 14.1659C223.801 14.0247 223.726 13.8489 223.709 13.6632C223.709 13.4706 223.887 13.3636 224.244 13.3423C227.856 12.9572 229.661 11.3432 229.661 8.50024C229.661 6.87435 229.093 5.68583 227.957 4.93469C226.82 4.18354 225.177 3.80678 223.027 3.80441H219.582C219.456 3.78841 219.329 3.82022 219.225 3.89355C219.152 3.99704 219.12 4.12428 219.136 4.2501V24.8162C219.151 24.9264 219.145 25.0386 219.117 25.1463C219.088 25.254 219.039 25.3551 218.972 25.4437Z" fill="black"/>
<path d="M262.29 22.1064C262.393 22.1814 262.521 22.2134 262.647 22.1955H273.216C273.431 22.1743 273.648 22.2312 273.825 22.356C273.896 22.4431 273.948 22.5437 273.979 22.6515C274.009 22.7594 274.018 22.8723 274.004 22.9835V24.8162C274.018 24.9274 274.009 25.0403 273.979 25.1482C273.948 25.256 273.896 25.3566 273.825 25.4437C273.648 25.5685 273.431 25.6255 273.216 25.6042H259.401C259.185 25.6255 258.969 25.5685 258.791 25.4437C258.721 25.3566 258.669 25.256 258.638 25.1482C258.607 25.0403 258.599 24.9274 258.613 24.8162V1.28356C258.599 1.17234 258.607 1.05941 258.638 0.951562C258.669 0.843714 258.721 0.743183 258.791 0.656025C258.969 0.531243 259.185 0.474308 259.401 0.495575H261.409C261.625 0.474944 261.842 0.531823 262.019 0.656025C262.09 0.743183 262.142 0.843714 262.173 0.951562C262.203 1.05941 262.212 1.17234 262.198 1.28356V21.8033C262.188 21.9125 262.222 22.0211 262.29 22.1064Z" fill="black"/>
<path d="M3.58818 22.7233H0V25.6078H3.58818V22.7233Z" fill="black"/>
<path d="M14.0281 11.7985H10.2651V15.2036H14.0281V11.7985Z" fill="black"/>
<path d="M15.2479 0.502686H10.2651V3.90779H15.2479V0.502686Z" fill="black"/>
<path d="M23.3196 0.502686H19.7314V3.90779H23.3196V0.502686Z" fill="black"/>
<path d="M23.3196 22.1991H19.7314V25.6042H23.3196V22.1991Z" fill="black"/>
<path d="M35.1224 22.1991H31.5342V25.6042H35.1224V22.1991Z" fill="black"/>
<path d="M72.3201 0.502686H68.7319V3.90779H72.3201V0.502686Z" fill="black"/>
<path d="M95.1014 0.502686H91.5132V3.90779H95.1014V0.502686Z" fill="black"/>
<path d="M95.1014 22.2098H91.5132V25.6149H95.1014V22.2098Z" fill="black"/>
<path d="M72.3201 22.1991H68.7319V25.6042H72.3201V22.1991Z" fill="black"/>
<path d="M129.721 22.1991H126.132V25.6042H129.721V22.1991Z" fill="black"/>
<path d="M146.509 0.502686H142.921V3.90779H146.509V0.502686Z" fill="black"/>
<path d="M166.273 0.417114H162.685V3.82222H166.273V0.417114Z" fill="black"/>
<path d="M166.273 22.5913H162.685V25.9964H166.273V22.5913Z" fill="black"/>
<path d="M182.598 22.5913H179.01V25.9964H182.598V22.5913Z" fill="black"/>
<path d="M182.598 0.417114H179.01V3.82222H182.598V0.417114Z" fill="black"/>
<path d="M192.353 0.417114H188.765V3.82222H192.353V0.417114Z" fill="black"/>
<path d="M209.43 0.417114H205.842V3.82222H209.43V0.417114Z" fill="black"/>
<path d="M219.15 22.1991H215.562V25.6042H219.15V22.1991Z" fill="black"/>
<path d="M274.004 22.1991H270.416V25.6042H274.004V22.1991Z" fill="black"/>
<path d="M262.201 22.1991H258.613V25.6042H262.201V22.1991Z" fill="black"/>
<path d="M262.201 0.417114H258.613V3.82222H262.201V0.417114Z" fill="black"/>
<path d="M85.2391 20.4539L82.2939 22.3754L84.1556 25.2269L87.1007 23.3055L85.2391 20.4539Z" fill="black"/>
<path d="M4.98279 0.502686H0V3.90779H4.98279V0.502686Z" fill="black"/>
<path d="M253.516 0.417114H238.343V3.90779H253.516V0.417114Z" fill="black"/>
<path d="M253.516 11.3064H238.343V14.7971H253.516V11.3064Z" fill="black"/>
<path d="M253.516 22.1564H238.343V25.647H253.516V22.1564Z" fill="black"/>
</svg>
