<svg width="37" height="37" viewBox="0 0 37 37" fill="none" xmlns="http://www.w3.org/2000/svg">
<circle cx="18.2857" cy="18.2857" r="17.9345" stroke="white" stroke-width="0.702381"/>
<path d="M18.4404 13.7543C17.5136 13.7543 16.6076 14.0292 15.837 14.5441C15.0664 15.059 14.4657 15.7909 14.1111 16.6472C13.7564 17.5034 13.6636 18.4456 13.8444 19.3547C14.0252 20.2637 14.4715 21.0987 15.1269 21.754C15.7822 22.4094 16.6172 22.8557 17.5262 23.0365C18.4352 23.2173 19.3775 23.1245 20.2337 22.7698C21.09 22.4152 21.8219 21.8145 22.3368 21.0439C22.8517 20.2733 23.1265 19.3673 23.1265 18.4404C23.1265 17.1976 22.6328 16.0057 21.754 15.1269C20.8752 14.2481 19.6833 13.7543 18.4404 13.7543ZM18.4404 21.5645C17.8226 21.5645 17.2186 21.3813 16.7048 21.038C16.1911 20.6947 15.7906 20.2068 15.5542 19.636C15.3177 19.0651 15.2559 18.437 15.3764 17.831C15.4969 17.225 15.7945 16.6683 16.2314 16.2314C16.6683 15.7945 17.225 15.4969 17.831 15.3764C18.437 15.2559 19.0651 15.3177 19.636 15.5542C20.2068 15.7906 20.6947 16.1911 21.038 16.7048C21.3813 17.2186 21.5645 17.8226 21.5645 18.4404C21.5619 19.2682 21.232 20.0613 20.6467 20.6467C20.0613 21.232 19.2682 21.5619 18.4404 21.5645ZM22.736 8.67773H14.1449C12.6949 8.67773 11.3043 9.25373 10.279 10.279C9.25373 11.3043 8.67773 12.6949 8.67773 14.1449V22.736C8.67773 24.186 9.25373 25.5766 10.279 26.6019C11.3043 27.6272 12.6949 28.2032 14.1449 28.2032H22.736C24.186 28.2032 25.5766 27.6272 26.6019 26.6019C27.6272 25.5766 28.2032 24.186 28.2032 22.736V14.1449C28.2032 12.6949 27.6272 11.3043 26.6019 10.279C25.5766 9.25373 24.186 8.67773 22.736 8.67773ZM26.6411 22.736C26.6411 23.2489 26.5401 23.7567 26.3439 24.2305C26.1476 24.7042 25.86 25.1347 25.4974 25.4974C25.1347 25.86 24.7042 26.1476 24.2305 26.3439C23.7567 26.5401 23.2489 26.6411 22.736 26.6411H14.1449C13.632 26.6411 13.1242 26.5401 12.6504 26.3439C12.1767 26.1476 11.7462 25.86 11.3835 25.4974C11.0209 25.1347 10.7333 24.7042 10.537 24.2305C10.3408 23.7567 10.2398 23.2489 10.2398 22.736V14.1449C10.2398 13.1092 10.6512 12.1159 11.3835 11.3835C12.1159 10.6512 13.1092 10.2398 14.1449 10.2398H22.736C23.2489 10.2398 23.7567 10.3408 24.2305 10.537C24.7042 10.7333 25.1347 11.0209 25.4974 11.3835C25.86 11.7462 26.1476 12.1767 26.3439 12.6504C26.5401 13.1242 26.6411 13.632 26.6411 14.1449V22.736ZM24.6886 13.3638C24.6886 13.5955 24.6199 13.822 24.4911 14.0147C24.3624 14.2074 24.1794 14.3575 23.9654 14.4462C23.7513 14.5349 23.5158 14.5581 23.2885 14.5129C23.0612 14.4676 22.8525 14.3561 22.6887 14.1922C22.5248 14.0284 22.4132 13.8196 22.368 13.5924C22.3228 13.3651 22.346 13.1296 22.4347 12.9155C22.5234 12.7014 22.6735 12.5185 22.8662 12.3897C23.0588 12.261 23.2854 12.1923 23.5171 12.1923C23.8278 12.1923 24.1257 12.3157 24.3454 12.5354C24.5652 12.7551 24.6886 13.0531 24.6886 13.3638Z" fill="white"/>
</svg>
