<svg width="1440" height="816" viewBox="0 0 1440 816" fill="none" xmlns="http://www.w3.org/2000/svg">
<path d="M917.056 707.432C814.132 707.432 732.736 671.539 654.005 636.841C575.889 602.398 495.074 566.784 393.585 566.784C292.096 566.784 211.281 602.398 133.166 636.841C91.3058 655.296 48.0107 674.386 1.9136 687.859L0.0341797 684.3C45.7212 670.929 88.8455 651.941 130.534 633.537C209.265 598.839 290.661 562.946 393.585 562.946C496.509 562.946 577.905 598.839 656.636 633.537C734.752 667.981 815.567 703.594 917.056 703.594C1018.54 703.594 1099.36 667.981 1177.48 633.537C1256.21 598.813 1337.6 562.946 1440.53 562.946V566.759C1339 566.759 1258.22 602.372 1180.11 636.816C1101.38 671.514 1019.98 707.407 917.056 707.407V707.432Z" fill="#7C7C7C"/>
<path d="M917.056 784.631C814.132 784.631 732.736 748.738 654.005 714.04C575.889 679.596 495.074 643.983 393.585 643.983C292.096 643.983 211.281 679.596 133.166 714.04C91.3058 732.495 48.0107 751.585 1.9136 765.058L0.0341797 761.499C45.7212 748.128 88.8455 729.139 130.534 710.736C209.265 676.038 290.661 640.145 393.585 640.145C496.509 640.145 577.905 676.038 656.636 710.736C734.752 745.179 815.567 780.792 917.056 780.792C1018.54 780.792 1099.36 745.179 1177.48 710.736C1256.21 676.012 1337.6 640.145 1440.53 640.145V643.958C1339 643.958 1258.22 679.571 1180.11 714.015C1101.38 748.713 1019.98 784.605 917.056 784.605V784.631Z" fill="#7C7C7C" fill-opacity="0.45"/>
<path d="M917.056 816.486C814.132 816.486 732.736 780.593 654.005 745.895C575.889 711.452 495.074 675.838 393.585 675.838C292.096 675.838 211.281 711.452 133.166 745.895C91.3058 764.35 48.0107 783.44 1.9136 796.913L0.0341797 793.354C45.7212 779.983 88.8455 760.995 130.534 742.591C209.265 707.893 290.661 672 393.585 672C496.509 672 577.905 707.893 656.636 742.591C734.752 777.035 815.567 812.648 917.056 812.648C1018.54 812.648 1099.36 777.035 1177.48 742.591C1256.21 707.867 1337.6 672 1440.53 672V675.813C1339 675.813 1258.22 711.426 1180.11 745.87C1101.38 780.568 1019.98 816.461 917.056 816.461V816.486Z" fill="#7C7C7C" fill-opacity="0.24"/>
<path d="M917.056 681.86C814.132 681.86 732.736 645.967 654.005 611.269C575.889 576.825 495.074 541.187 393.585 541.187C292.096 541.187 211.281 576.8 133.166 611.244C91.3058 629.698 48.0107 648.789 1.9136 662.261L0.0341797 658.702C45.7212 645.331 88.8455 626.343 130.534 607.939C209.265 573.241 290.661 537.348 393.585 537.348C496.509 537.348 577.905 573.241 656.636 607.939C734.752 642.383 815.567 678.021 917.056 678.021C1018.54 678.021 1099.36 642.408 1177.48 607.939C1256.21 573.241 1337.6 537.348 1440.53 537.348V541.161C1339 541.161 1258.22 576.774 1180.11 611.244C1101.38 645.942 1019.98 681.834 917.056 681.834V681.86Z" fill="#7C7C7C"/>
<path d="M917.056 759.058C814.132 759.058 732.736 723.166 654.005 688.468C575.889 654.024 495.074 618.385 393.585 618.385C292.096 618.385 211.281 653.998 133.166 688.442C91.3058 706.897 48.0107 725.987 1.9136 739.46L0.0341797 735.901C45.7212 722.53 88.8455 703.542 130.534 685.138C209.265 650.44 290.661 614.547 393.585 614.547C496.509 614.547 577.905 650.44 656.636 685.138C734.752 719.581 815.567 755.22 917.056 755.22C1018.54 755.22 1099.36 719.607 1177.48 685.138C1256.21 650.44 1337.6 614.547 1440.53 614.547V618.36C1339 618.36 1258.22 653.973 1180.11 688.442C1101.38 723.14 1019.98 759.033 917.056 759.033V759.058Z" fill="#7C7C7C" fill-opacity="0.45"/>
<path d="M917.056 656.287C814.132 656.287 732.736 620.395 654.005 585.697C575.889 551.253 495.074 515.64 393.585 515.64C292.096 515.64 211.281 551.253 133.166 585.697C91.3058 604.151 48.0107 623.242 1.9136 636.714L0.0341797 633.155C45.7212 619.785 88.8455 600.796 130.534 582.392C209.265 547.694 290.661 511.801 393.585 511.801C496.509 511.801 577.905 547.694 656.636 582.392C734.752 616.836 815.567 652.449 917.056 652.449C1018.54 652.449 1099.36 616.836 1177.48 582.392C1256.21 547.669 1337.6 511.801 1440.53 511.801V515.614C1339 515.614 1258.22 551.227 1180.11 585.671C1101.38 620.369 1019.98 656.262 917.056 656.262V656.287Z" fill="#7C7C7C"/>
<path d="M917.056 733.486C814.132 733.486 732.736 697.593 654.005 662.895C575.889 628.452 495.074 592.838 393.585 592.838C292.096 592.838 211.281 628.452 133.166 662.895C91.3058 681.35 48.0107 700.44 1.9136 713.913L0.0341797 710.354C45.7212 696.983 88.8455 677.995 130.534 659.591C209.265 624.893 290.661 589 393.585 589C496.509 589 577.905 624.893 656.636 659.591C734.752 694.035 815.567 729.648 917.056 729.648C1018.54 729.648 1099.36 694.035 1177.48 659.591C1256.21 624.867 1337.6 589 1440.53 589V592.813C1339 592.813 1258.22 628.426 1180.11 662.87C1101.38 697.568 1019.98 733.461 917.056 733.461V733.486Z" fill="#7C7C7C" fill-opacity="0.45"/>
<path d="M917.056 630.715C814.132 630.715 732.736 594.822 654.005 560.124C575.889 525.681 495.074 490.067 393.585 490.067C292.096 490.067 211.281 525.681 133.166 560.124C91.3058 578.579 48.0107 597.669 1.9136 611.142L0.0341797 607.583C45.7212 594.212 88.8455 575.224 130.534 556.82C209.265 522.122 290.661 486.229 393.585 486.229C496.509 486.229 577.905 522.122 656.636 556.82C734.752 591.264 815.567 626.902 917.056 626.902C1018.54 626.902 1099.36 591.289 1177.48 556.82C1256.21 522.122 1337.6 486.229 1440.53 486.229V490.042C1339 490.042 1258.22 525.655 1180.11 560.099C1101.38 594.797 1019.98 630.69 917.056 630.69V630.715Z" fill="#7C7C7C"/>
<path d="M917.056 605.143C814.132 605.143 732.736 569.25 654.005 534.552C575.889 500.108 495.074 464.495 393.585 464.495C292.096 464.495 211.281 500.108 133.166 534.552C91.3058 553.007 48.0107 572.097 1.9136 585.57L0.0341797 582.011C45.7212 568.64 88.8455 549.651 130.534 531.248C209.265 496.55 290.661 460.657 393.585 460.657C496.509 460.657 577.905 496.55 656.636 531.248C734.752 565.691 815.567 601.33 917.056 601.33C1018.54 601.33 1099.36 565.717 1177.48 531.248C1256.21 496.55 1337.6 460.657 1440.53 460.657V464.47C1339 464.47 1258.22 500.083 1180.11 534.527C1101.38 569.225 1019.98 605.117 917.056 605.117V605.143Z" fill="#7C7C7C"/>
<path d="M917.056 579.545C814.132 579.545 732.736 543.652 654.005 508.954C575.889 474.51 495.074 438.897 393.585 438.897C292.096 438.897 211.281 474.51 133.166 508.954C91.3058 527.409 48.0107 546.499 1.9136 559.972L0.0341797 556.413C45.7212 543.042 88.8455 524.028 130.534 505.65C209.265 470.952 290.661 435.059 393.585 435.059C496.509 435.059 577.905 470.952 656.636 505.65C734.752 540.093 815.567 575.707 917.056 575.707C1018.54 575.707 1099.36 540.093 1177.48 505.65C1256.21 470.926 1337.6 435.059 1440.53 435.059V438.872C1339 438.872 1258.22 474.485 1180.11 508.929C1101.38 543.652 1019.98 579.52 917.056 579.52V579.545Z" fill="#7C7C7C"/>
<path d="M917.056 553.973C814.132 553.973 732.736 518.08 654.005 483.382C575.889 448.938 495.074 413.3 393.585 413.3C292.096 413.3 211.281 448.913 133.166 483.357C91.3058 501.811 48.0107 520.902 1.9136 534.374L0.0341797 530.815C45.7212 517.444 88.8455 498.43 130.534 480.052C209.265 445.354 290.661 409.461 393.585 409.461C496.509 409.461 577.905 445.354 656.636 480.052C734.752 514.496 815.567 550.134 917.056 550.134C1018.54 550.134 1099.36 514.521 1177.48 480.052C1256.21 445.354 1337.6 409.461 1440.53 409.461V413.274C1339 413.274 1258.22 448.887 1180.11 483.357C1101.38 518.055 1019.98 553.947 917.056 553.947V553.973Z" fill="#7C7C7C"/>
<path d="M917.056 528.4C814.132 528.4 732.736 492.508 654.005 457.81C575.889 423.366 495.074 387.753 393.585 387.753C292.096 387.753 211.281 423.366 133.166 457.81C91.3058 476.264 48.0107 495.355 1.9136 508.827L0.0341797 505.268C45.7212 491.898 88.8455 472.909 130.534 454.505C209.265 419.807 290.661 383.914 393.585 383.914C496.509 383.914 577.905 419.807 656.636 454.505C734.752 488.949 815.567 524.562 917.056 524.562C1018.54 524.562 1099.36 488.949 1177.48 454.505C1256.21 419.807 1337.6 383.914 1440.53 383.914V387.727C1339 387.727 1258.22 423.34 1180.11 457.784C1101.38 492.482 1019.98 528.375 917.056 528.375V528.4Z" fill="#7C7C7C"/>
<path d="M917.056 502.828C814.132 502.828 732.736 466.935 654.005 432.237C575.889 397.793 495.074 362.155 393.585 362.155C292.096 362.155 211.281 397.768 133.166 432.212C91.3058 450.667 48.0107 469.757 1.9136 483.229L0.0341797 479.671C45.7212 466.3 88.8455 447.286 130.534 428.907C209.265 394.209 290.661 358.317 393.585 358.317C496.509 358.317 577.905 394.209 656.636 428.907C734.752 463.351 815.567 498.964 917.056 498.964C1018.54 498.964 1099.36 463.351 1177.48 428.907C1256.21 394.184 1337.6 358.317 1440.53 358.317V362.129C1339 362.129 1258.22 397.743 1180.11 432.212C1101.38 466.935 1019.98 502.803 917.056 502.803V502.828Z" fill="#7C7C7C"/>
<path d="M917.056 477.256C814.132 477.256 732.736 441.363 654.005 406.665C575.889 372.221 495.074 336.608 393.585 336.608C292.096 336.608 211.281 372.221 133.166 406.665C91.3058 425.12 48.0107 444.21 1.9136 457.683L0.0341797 454.124C45.7212 440.753 88.8455 421.764 130.534 403.36C209.265 368.662 290.661 332.77 393.585 332.77C496.509 332.77 577.905 368.662 656.636 403.36C734.752 437.804 815.567 473.443 917.056 473.443C1018.54 473.443 1099.36 437.83 1177.48 403.36C1256.21 368.637 1337.6 332.77 1440.53 332.77V336.583C1339 336.583 1258.22 372.196 1180.11 406.64C1101.38 441.363 1019.98 477.23 917.056 477.23V477.256Z" fill="#7C7C7C"/>
<path d="M917.056 451.658C814.132 451.658 732.736 415.765 654.005 381.067C575.889 346.623 495.074 310.985 393.585 310.985C292.096 310.985 211.281 346.598 133.166 381.067C91.3058 399.522 48.0107 418.612 1.9136 432.085L0.0341797 428.526C45.7212 415.155 88.8455 396.167 130.534 377.763C209.265 343.039 290.661 307.172 393.585 307.172C496.509 307.172 577.905 343.065 656.636 377.763C734.752 412.207 815.567 447.82 917.056 447.82C1018.54 447.82 1099.36 412.207 1177.48 377.763C1256.21 343.039 1337.6 307.172 1440.53 307.172V310.985C1339 310.985 1258.22 346.598 1180.11 381.067C1101.38 415.791 1019.98 451.658 917.056 451.658Z" fill="#7C7C7C"/>
<path d="M917.056 426.086C814.132 426.086 732.736 390.193 654.005 355.495C575.889 321.051 495.074 285.438 393.585 285.438C292.096 285.438 211.281 321.051 133.166 355.495C91.3058 373.95 48.0107 393.04 1.9136 406.513L0.0341797 402.954C45.7212 389.583 88.8455 370.594 130.534 352.19C209.265 317.492 290.661 281.6 393.585 281.6C496.509 281.6 577.905 317.492 656.636 352.19C734.752 386.634 815.567 422.247 917.056 422.247C1018.54 422.247 1099.36 386.634 1177.48 352.19C1256.21 317.492 1337.6 281.6 1440.53 281.6V285.413C1339 285.413 1258.22 321.026 1180.11 355.47C1101.38 390.168 1019.98 426.06 917.056 426.06V426.086Z" fill="#7C7C7C"/>
<path d="M917.056 400.513C814.132 400.513 732.736 364.621 654.005 329.923C575.889 295.479 495.074 259.866 393.585 259.866C292.096 259.866 211.281 295.479 133.166 329.923C91.3058 348.377 48.0107 367.468 1.9136 380.94L0.0341797 377.381C45.7212 364.011 88.8455 344.997 130.534 326.618C209.265 291.92 290.661 256.027 393.585 256.027C496.509 256.027 577.905 291.92 656.636 326.618C734.752 361.062 815.567 396.675 917.056 396.675C1018.54 396.675 1099.36 361.062 1177.48 326.618C1256.21 291.895 1337.6 256.027 1440.53 256.027V259.84C1339 259.84 1258.22 295.453 1180.11 329.897C1101.38 364.621 1019.98 400.488 917.056 400.488V400.513Z" fill="#7C7C7C"/>
<path d="M917.056 374.941C814.132 374.941 732.736 339.048 654.005 304.35C575.889 269.906 495.074 234.293 393.585 234.293C292.096 234.293 211.281 269.906 133.166 304.35C91.3058 322.805 48.0107 341.895 1.9136 355.368L0.0341797 351.809C45.7212 338.438 88.8455 319.45 130.534 301.046C209.265 266.348 290.661 230.455 393.585 230.455C496.509 230.455 577.905 266.348 656.636 301.046C734.752 335.49 815.567 371.103 917.056 371.103C1018.54 371.103 1099.36 335.49 1177.48 301.046C1256.21 266.322 1337.6 230.455 1440.53 230.455V234.268C1339 234.268 1258.22 269.881 1180.11 304.325C1101.38 339.048 1019.98 374.916 917.056 374.916V374.941Z" fill="#7C7C7C"/>
<path d="M917.056 349.369C814.132 349.369 732.736 313.476 654.005 278.778C575.889 244.334 495.074 208.721 393.585 208.721C292.096 208.721 211.281 244.334 133.166 278.778C91.3058 297.233 48.0107 316.323 1.9136 329.796L0.0341797 326.237C45.7212 312.866 88.8455 293.877 130.534 275.473C209.265 240.775 290.661 204.883 393.585 204.883C496.509 204.883 577.905 240.775 656.636 275.473C734.752 309.917 815.567 345.556 917.056 345.556C1018.54 345.556 1099.36 309.943 1177.48 275.473C1256.21 240.75 1337.6 204.883 1440.53 204.883V208.696C1339 208.696 1258.22 244.309 1180.11 278.753C1101.38 313.476 1019.98 349.343 917.056 349.343V349.369Z" fill="#7C7C7C"/>
<path d="M917.056 323.796C814.132 323.796 732.736 287.904 654.005 253.206C575.889 218.762 495.074 183.149 393.585 183.149C292.096 183.149 211.281 218.762 133.166 253.206C91.3058 271.66 48.0107 290.751 1.9136 304.223L0.0341797 300.664C45.7212 287.294 88.8455 268.305 130.534 249.901C209.265 215.203 290.661 179.31 393.585 179.31C496.509 179.31 577.905 215.203 656.636 249.901C734.752 284.345 815.567 319.983 917.056 319.983C1018.54 319.983 1099.36 284.37 1177.48 249.901C1256.21 215.203 1337.6 179.31 1440.53 179.31V183.123C1339 183.123 1258.22 218.736 1180.11 253.18C1101.38 287.878 1019.98 323.771 917.056 323.771V323.796Z" fill="#7C7C7C"/>
<path d="M917.056 298.199C814.132 298.199 732.736 262.306 654.005 227.608C575.889 193.164 495.074 157.551 393.585 157.551C292.096 157.551 211.281 193.164 133.166 227.608C91.3058 246.063 48.0107 265.153 1.9136 278.626L0.0341797 275.067C45.7212 261.696 88.8455 242.707 130.534 224.303C209.265 189.605 290.661 153.713 393.585 153.713C496.509 153.713 577.905 189.605 656.636 224.303C734.752 258.747 815.567 294.386 917.056 294.386C1018.54 294.386 1099.36 258.773 1177.48 224.303C1256.21 189.605 1337.6 153.713 1440.53 153.713V157.526C1339 157.526 1258.22 193.139 1180.11 227.583C1101.38 262.281 1019.98 298.173 917.056 298.173V298.199Z" fill="#7C7C7C"/>
<path d="M917.056 272.626C814.132 272.626 732.736 236.734 654.005 202.036C575.889 167.592 495.074 131.979 393.585 131.979C292.096 131.979 211.281 167.592 133.166 202.036C91.3058 220.49 48.0107 239.581 1.9136 253.053L0.0341797 249.494C45.7212 236.124 88.8455 217.135 130.534 198.731C209.265 164.033 290.661 128.14 393.585 128.14C496.509 128.14 577.905 164.033 656.636 198.731C734.752 233.175 815.567 268.788 917.056 268.788C1018.54 268.788 1099.36 233.175 1177.48 198.731C1256.21 164.008 1337.6 128.14 1440.53 128.14V131.953C1339 131.953 1258.22 167.566 1180.11 202.01C1101.38 236.734 1019.98 272.601 917.056 272.601V272.626Z" fill="#7C7C7C"/>
<path d="M917.056 247.054C814.132 247.054 732.736 211.161 654.005 176.463C575.889 142.02 495.074 106.406 393.585 106.406C292.096 106.406 211.281 142.02 133.166 176.463C91.3058 194.918 48.0107 214.008 1.9136 227.481L0.0341797 223.922C45.7212 210.551 88.8455 191.537 130.534 173.159C209.265 138.461 290.661 102.568 393.585 102.568C496.509 102.568 577.905 138.461 656.636 173.159C734.752 207.603 815.567 243.216 917.056 243.216C1018.54 243.216 1099.36 207.603 1177.48 173.159C1256.21 138.461 1337.6 102.568 1440.53 102.568V106.381C1339 106.381 1258.22 141.994 1180.11 176.438C1101.38 211.136 1019.98 247.029 917.056 247.029V247.054Z" fill="#7C7C7C"/>
<path d="M917.056 221.482C814.132 221.482 732.736 185.589 654.005 150.891C575.889 116.447 495.074 80.834 393.585 80.834C292.096 80.834 211.281 116.447 133.166 150.891C91.3058 169.346 48.0107 188.436 1.9136 201.909L0.0341797 198.35C45.7212 184.979 88.8455 165.99 130.534 147.586C209.265 112.888 290.661 76.9956 393.585 76.9956C496.509 76.9956 577.905 112.888 656.636 147.586C734.752 182.03 815.567 217.643 917.056 217.643C1018.54 217.643 1099.36 182.03 1177.48 147.586C1256.21 112.863 1337.6 76.9956 1440.53 76.9956V80.8086C1339 80.8086 1258.22 116.422 1180.11 150.866C1101.38 185.589 1019.98 221.456 917.056 221.456V221.482Z" fill="#7C7C7C"/>
<path d="M917.056 195.909C814.132 195.909 732.736 160.017 654.005 125.319C575.889 90.8749 495.074 55.2617 393.585 55.2617C292.096 55.2617 211.281 90.8749 133.166 125.319C91.3058 143.773 48.0107 162.864 1.9136 176.336L0.0341797 172.777C45.7212 159.407 88.8455 140.418 130.534 122.014C209.265 87.3161 290.661 51.4233 393.585 51.4233C496.509 51.4233 577.905 87.3161 656.636 122.014C734.752 156.458 815.567 192.071 917.056 192.071C1018.54 192.071 1099.36 156.458 1177.48 122.014C1256.21 87.3161 1337.6 51.4233 1440.53 51.4233V55.2363C1339 55.2363 1258.22 90.8494 1180.11 125.293C1101.38 159.991 1019.98 195.884 917.056 195.884V195.909Z" fill="#7C7C7C"/>
<path d="M917.056 170.337C814.132 170.337 732.736 134.444 654.005 99.7463C575.889 65.3025 495.074 29.6639 393.585 29.6639C292.096 29.6639 211.281 65.2771 133.166 99.7209C91.2374 118.176 47.9424 137.266 1.87942 150.738L0 147.18C45.6871 133.809 88.8113 114.82 130.5 96.4163C209.231 61.7183 290.627 25.8256 393.551 25.8256C496.475 25.8256 577.871 61.7183 656.602 96.4163C734.718 130.86 815.533 166.499 917.022 166.499C1018.51 166.499 1099.33 130.886 1177.44 96.4163C1256.17 61.7183 1337.57 25.8256 1440.49 25.8256V29.6385C1338.97 29.6385 1258.19 65.2517 1180.07 99.7209C1101.34 134.419 1019.95 170.312 917.022 170.312L917.056 170.337Z" fill="#7C7C7C"/>
<path d="M917.056 144.739C814.132 144.739 732.736 108.847 654.005 74.1486C575.855 39.7048 495.074 4.06627 393.551 4.06627C292.028 4.06627 211.247 39.7048 133.131 74.1486C91.2374 92.6034 47.9424 111.694 1.87942 125.166L0 121.607C45.6871 108.237 88.8113 89.2226 130.5 70.8441C209.231 36.1461 290.627 0.253296 393.551 0.253296C496.475 0.253296 577.871 36.1461 656.602 70.8441C734.718 105.288 815.533 140.901 917.022 140.901C1018.51 140.901 1099.33 105.288 1177.44 70.8441C1256.17 36.1206 1337.57 0.253296 1440.49 0.253296V4.06627C1338.97 4.06627 1258.19 39.6794 1180.07 74.1232C1101.34 108.847 1019.95 144.714 917.022 144.714L917.056 144.739Z" fill="#7C7C7C"/>
</svg>