<svg width="375" height="330" viewBox="0 0 375 330" fill="none" xmlns="http://www.w3.org/2000/svg">
<path d="M253.37 329.49C223.25 329.49 199.43 312.46 176.39 295.998C153.53 279.656 129.88 262.759 100.18 262.759C70.4798 262.759 46.8298 279.656 23.9698 295.998C11.7198 304.754 -0.950234 313.811 -14.4402 320.203L-14.9902 318.515C-1.62023 312.171 10.9998 303.162 23.1998 294.43C46.2398 277.967 70.0598 260.938 100.18 260.938C130.3 260.938 154.12 277.967 177.16 294.43C200.02 310.772 223.67 327.669 253.37 327.669C283.07 327.669 306.72 310.772 329.58 294.43C352.62 277.955 376.44 260.938 406.56 260.938V262.747C376.85 262.747 353.21 279.644 330.35 295.986C307.31 312.448 283.49 329.478 253.37 329.478V329.49Z" fill="#7C7C7C"/>
<path d="M253.37 317.357C223.25 317.357 199.43 300.327 176.39 283.865C153.53 267.523 129.88 250.614 100.18 250.614C70.4798 250.614 46.8298 267.511 23.9698 283.853C11.7198 292.609 -0.950234 301.666 -14.4402 308.058L-14.9902 306.37C-1.62023 300.026 10.9998 291.017 23.1998 282.285C46.2398 265.822 70.0598 248.793 100.18 248.793C130.3 248.793 154.12 265.822 177.16 282.285C200.02 298.627 223.67 315.536 253.37 315.536C283.07 315.536 306.72 298.639 329.58 282.285C352.62 265.822 376.44 248.793 406.56 248.793V250.602C376.85 250.602 353.21 267.499 330.35 283.853C307.31 300.315 283.49 317.345 253.37 317.345V317.357Z" fill="#7C7C7C"/>
<path d="M253.37 305.224C223.25 305.224 199.43 288.195 176.39 271.732C153.53 255.39 129.88 238.493 100.18 238.493C70.4798 238.493 46.8298 255.39 23.9698 271.732C11.7198 280.488 -0.950234 289.545 -14.4402 295.937L-14.9902 294.249C-1.62023 287.905 10.9998 278.896 23.1998 270.164C46.2398 253.702 70.0598 236.672 100.18 236.672C130.3 236.672 154.12 253.702 177.16 270.164C200.02 286.506 223.67 303.403 253.37 303.403C283.07 303.403 306.72 286.506 329.58 270.164C352.62 253.689 376.44 236.672 406.56 236.672V238.481C376.85 238.481 353.21 255.378 330.35 271.72C307.31 288.182 283.49 305.212 253.37 305.212V305.224Z" fill="#7C7C7C"/>
<path d="M253.37 293.091C223.25 293.091 199.43 276.062 176.39 259.599C153.53 243.257 129.88 226.36 100.18 226.36C70.4798 226.36 46.8298 243.257 23.9698 259.599C11.7198 268.355 -0.950234 277.412 -14.4402 283.805L-14.9902 282.116C-1.62023 275.772 10.9998 266.763 23.1998 258.031C46.2398 241.569 70.0598 224.539 100.18 224.539C130.3 224.539 154.12 241.569 177.16 258.031C200.02 274.373 223.67 291.282 253.37 291.282C283.07 291.282 306.72 274.385 329.58 258.031C352.62 241.569 376.44 224.539 406.56 224.539V226.348C376.85 226.348 353.21 243.245 330.35 259.587C307.31 276.05 283.49 293.079 253.37 293.079V293.091Z" fill="#7C7C7C"/>
<path d="M253.37 280.958C223.25 280.958 199.43 263.929 176.39 247.466C153.53 231.124 129.88 214.228 100.18 214.228C70.4798 214.228 46.8298 231.124 23.9698 247.466C11.7198 256.222 -0.950234 265.28 -14.4402 271.672L-14.9902 269.983C-1.62023 263.639 10.9998 254.63 23.1998 245.898C46.2398 229.436 70.0598 212.406 100.18 212.406C130.3 212.406 154.12 229.436 177.16 245.898C200.02 262.24 223.67 279.149 253.37 279.149C283.07 279.149 306.72 262.252 329.58 245.898C352.62 229.436 376.44 212.406 406.56 212.406V214.216C376.85 214.216 353.21 231.112 330.35 247.454C307.31 263.917 283.49 280.946 253.37 280.946V280.958Z" fill="#7C7C7C"/>
<path d="M253.37 268.813C223.25 268.813 199.43 251.784 176.39 235.321C153.53 218.979 129.88 202.083 100.18 202.083C70.4798 202.083 46.8298 218.979 23.9698 235.321C11.7198 244.077 -0.950234 253.135 -14.4402 259.527L-14.9902 257.838C-1.62023 251.494 10.9998 242.473 23.1998 233.753C46.2398 217.291 70.0598 200.261 100.18 200.261C130.3 200.261 154.12 217.291 177.16 233.753C200.02 250.095 223.67 266.992 253.37 266.992C283.07 266.992 306.72 250.095 329.58 233.753C352.62 217.279 376.44 200.261 406.56 200.261V202.071C376.85 202.071 353.21 218.967 330.35 235.309C307.31 251.784 283.49 268.801 253.37 268.801V268.813Z" fill="#7C7C7C"/>
<path d="M253.37 256.681C223.25 256.681 199.43 239.651 176.39 223.189C153.53 206.847 129.88 189.938 100.18 189.938C70.4798 189.938 46.8298 206.835 23.9698 223.177C11.7198 231.932 -0.950234 240.99 -14.4402 247.382L-14.9902 245.693C-1.62023 239.35 10.9998 230.328 23.1998 221.609C46.2398 205.146 70.0598 188.117 100.18 188.117C130.3 188.117 154.12 205.146 177.16 221.609C200.02 237.951 223.67 254.859 253.37 254.859C283.07 254.859 306.72 237.963 329.58 221.609C352.62 205.146 376.44 188.117 406.56 188.117V189.926C376.85 189.926 353.21 206.823 330.35 223.177C307.31 239.639 283.49 256.669 253.37 256.669V256.681Z" fill="#7C7C7C"/>
<path d="M253.37 244.548C223.25 244.548 199.43 227.518 176.39 211.056C153.53 194.714 129.88 177.817 100.18 177.817C70.4798 177.817 46.8298 194.714 23.9698 211.056C11.7198 219.812 -0.950234 228.869 -14.4402 235.261L-14.9902 233.573C-1.62023 227.229 10.9998 218.22 23.1998 209.488C46.2398 193.025 70.0598 175.996 100.18 175.996C130.3 175.996 154.12 193.025 177.16 209.488C200.02 225.83 223.67 242.727 253.37 242.727C283.07 242.727 306.72 225.83 329.58 209.488C352.62 193.025 376.44 175.996 406.56 175.996V177.805C376.85 177.805 353.21 194.702 330.35 211.044C307.31 227.506 283.49 244.536 253.37 244.536V244.548Z" fill="#7C7C7C"/>
<path d="M253.37 232.415C223.25 232.415 199.43 215.385 176.39 198.923C153.53 182.581 129.88 165.672 100.18 165.672C70.4798 165.672 46.8298 182.569 23.9698 198.911C11.7198 207.667 -0.950234 216.724 -14.4402 223.116L-14.9902 221.428C-1.62023 215.084 10.9998 206.063 23.1998 197.343C46.2398 180.88 70.0598 163.851 100.18 163.851C130.3 163.851 154.12 180.88 177.16 197.343C200.02 213.685 223.67 230.581 253.37 230.581C283.07 230.581 306.72 213.685 329.58 197.343C352.62 180.868 376.44 163.851 406.56 163.851V165.66C376.85 165.66 353.21 182.557 330.35 198.911C307.31 215.385 283.49 232.403 253.37 232.403V232.415Z" fill="#7C7C7C"/>
<path d="M253.37 218.137C223.25 218.137 199.43 201.108 176.39 184.645C153.53 168.303 129.88 151.394 100.18 151.394C70.4798 151.394 46.8298 168.291 23.9698 184.645C11.7198 193.401 -0.950234 202.458 -14.4402 208.85L-14.9902 207.162C-1.62023 200.818 10.9998 191.809 23.1998 183.077C46.2398 166.603 70.0598 149.585 100.18 149.585C130.3 149.585 154.12 166.615 177.16 183.077C200.02 199.419 223.67 216.316 253.37 216.316C283.07 216.316 306.72 199.419 329.58 183.077C352.62 166.603 376.44 149.585 406.56 149.585V151.394C376.85 151.394 353.21 168.291 330.35 184.645C307.31 201.12 283.49 218.137 253.37 218.137Z" fill="#7C7C7C"/>
<path d="M253.37 206.004C223.25 206.004 199.43 188.975 176.39 172.512C153.53 156.17 129.88 139.274 100.18 139.274C70.4798 139.274 46.8298 156.17 23.9698 172.512C11.7198 181.268 -0.950234 190.326 -14.4402 196.718L-14.9902 195.029C-1.62023 188.685 10.9998 179.676 23.1998 170.944C46.2398 154.482 70.0598 137.452 100.18 137.452C130.3 137.452 154.12 154.482 177.16 170.944C200.02 187.286 223.67 204.183 253.37 204.183C283.07 204.183 306.72 187.286 329.58 170.944C352.62 154.482 376.44 137.452 406.56 137.452V139.261C376.85 139.261 353.21 156.158 330.35 172.5C307.31 188.963 283.49 205.992 253.37 205.992V206.004Z" fill="#7C7C7C"/>
<path d="M253.37 193.871C223.25 193.871 199.43 176.842 176.39 160.379C153.53 144.037 129.88 127.141 100.18 127.141C70.4798 127.141 46.8298 144.037 23.9698 160.379C11.7198 169.135 -0.950234 178.193 -14.4402 184.585L-14.9902 182.896C-1.62023 176.553 10.9998 167.531 23.1998 158.812C46.2398 142.349 70.0598 125.32 100.18 125.32C130.3 125.32 154.12 142.349 177.16 158.812C200.02 175.154 223.67 192.05 253.37 192.05C283.07 192.05 306.72 175.154 329.58 158.812C352.62 142.337 376.44 125.32 406.56 125.32V127.129C376.85 127.129 353.21 144.025 330.35 160.367C307.31 176.842 283.49 193.859 253.37 193.859V193.871Z" fill="#7C7C7C"/>
<path d="M253.37 181.738C223.25 181.738 199.43 164.709 176.39 148.246C153.53 131.904 129.88 115.008 100.18 115.008C70.4798 115.008 46.8298 131.904 23.9698 148.246C11.7198 157.002 -0.950234 166.06 -14.4402 172.452L-14.9902 170.763C-1.62023 164.419 10.9998 155.41 23.1998 146.679C46.2398 130.216 70.0598 113.187 100.18 113.187C130.3 113.187 154.12 130.216 177.16 146.679C200.02 163.02 223.67 179.917 253.37 179.917C283.07 179.917 306.72 163.02 329.58 146.679C352.62 130.204 376.44 113.187 406.56 113.187V114.996C376.85 114.996 353.21 131.892 330.35 148.234C307.31 164.709 283.49 181.726 253.37 181.726V181.738Z" fill="#7C7C7C"/>
<path d="M253.37 169.606C223.25 169.606 199.43 152.576 176.39 136.114C153.53 119.772 129.88 102.875 100.18 102.875C70.4798 102.875 46.8298 119.772 23.9698 136.114C11.7198 144.87 -0.950234 153.927 -14.4402 160.319L-14.9902 158.631C-1.62023 152.287 10.9998 143.278 23.1998 134.546C46.2398 118.083 70.0598 101.054 100.18 101.054C130.3 101.054 154.12 118.083 177.16 134.546C200.02 150.888 223.67 167.797 253.37 167.797C283.07 167.797 306.72 150.9 329.58 134.546C352.62 118.071 376.44 101.054 406.56 101.054V102.863C376.85 102.863 353.21 119.76 330.35 136.102C307.31 152.576 283.49 169.594 253.37 169.594V169.606Z" fill="#7C7C7C"/>
<path d="M253.37 157.473C223.25 157.473 199.43 140.443 176.39 123.981C153.53 107.639 129.88 90.742 100.18 90.742C70.4798 90.742 46.8298 107.639 23.9698 123.981C11.7198 132.737 -0.950234 141.794 -14.4402 148.186L-14.9902 146.498C-1.62023 140.154 10.9998 131.145 23.1998 122.413C46.2398 105.95 70.0598 88.9209 100.18 88.9209C130.3 88.9209 154.12 105.95 177.16 122.413C200.02 138.755 223.67 155.664 253.37 155.664C283.07 155.664 306.72 138.767 329.58 122.413C352.62 105.95 376.44 88.9209 406.56 88.9209V90.73C376.85 90.73 353.21 107.627 330.35 123.969C307.31 140.431 283.49 157.461 253.37 157.461V157.473Z" fill="#7C7C7C"/>
<path d="M253.37 145.328C223.25 145.328 199.43 128.298 176.39 111.836C153.53 95.4939 129.88 78.5971 100.18 78.5971C70.4798 78.5971 46.8298 95.4939 23.9698 111.836C11.7198 120.592 -0.950234 129.649 -14.4402 136.041L-14.9902 134.353C-1.62023 128.009 10.9998 119 23.1998 110.268C46.2398 93.8054 70.0598 76.776 100.18 76.776C130.3 76.776 154.12 93.8054 177.16 110.268C200.02 126.61 223.67 143.519 253.37 143.519C283.07 143.519 306.72 126.622 329.58 110.268C352.62 93.8054 376.44 76.776 406.56 76.776V78.5851C376.85 78.5851 353.21 95.4818 330.35 111.824C307.31 128.286 283.49 145.316 253.37 145.316V145.328Z" fill="#7C7C7C"/>
<path d="M253.37 133.195C223.25 133.195 199.43 116.166 176.39 99.703C153.53 83.3611 129.88 66.4643 100.18 66.4643C70.4798 66.4643 46.8298 83.3611 23.9698 99.703C11.7198 108.459 -0.950234 117.516 -14.4402 123.908L-14.9902 122.22C-1.62023 115.876 10.9998 106.867 23.1998 98.1352C46.2398 81.6726 70.0598 64.6432 100.18 64.6432C130.3 64.6432 154.12 81.6726 177.16 98.1352C200.02 114.477 223.67 131.374 253.37 131.374C283.07 131.374 306.72 114.477 329.58 98.1352C352.62 81.6605 376.44 64.6432 406.56 64.6432V66.4523C376.85 66.4523 353.21 83.349 330.35 99.691C307.31 116.166 283.49 133.183 253.37 133.183V133.195Z" fill="#7C7C7C"/>
<path d="M253.37 121.062C223.25 121.062 199.43 104.033 176.39 87.5702C153.53 71.2283 129.88 54.3315 100.18 54.3315C70.4798 54.3315 46.8298 71.2283 23.9698 87.5702C11.7198 96.3261 -0.950234 105.384 -14.4402 111.776L-14.9902 110.087C-1.62023 103.743 10.9998 94.7221 23.1998 86.0024C46.2398 69.5398 70.0598 52.5104 100.18 52.5104C130.3 52.5104 154.12 69.5398 177.16 86.0024C200.02 102.344 223.67 119.241 253.37 119.241C283.07 119.241 306.72 102.344 329.58 86.0024C352.62 69.5398 376.44 52.5104 406.56 52.5104V54.3194C376.85 54.3194 353.21 71.2162 330.35 87.5582C307.31 104.021 283.49 121.05 253.37 121.05V121.062Z" fill="#7C7C7C"/>
<path d="M253.37 108.929C223.25 108.929 199.43 91.8998 176.39 75.4373C153.53 59.0953 129.88 42.1986 100.18 42.1986C70.4798 42.1986 46.8298 59.0953 23.9698 75.4373C11.7198 84.1932 -0.950234 93.2506 -14.4402 99.6427L-14.9902 97.9542C-1.62023 91.6104 10.9998 82.6012 23.1998 73.8694C46.2398 57.4068 70.0598 40.3774 100.18 40.3774C130.3 40.3774 154.12 57.4068 177.16 73.8694C200.02 90.2114 223.67 107.108 253.37 107.108C283.07 107.108 306.72 90.2114 329.58 73.8694C352.62 57.3948 376.44 40.3774 406.56 40.3774V42.1865C376.85 42.1865 353.21 59.0833 330.35 75.4252C307.31 91.8998 283.49 108.917 253.37 108.917V108.929Z" fill="#7C7C7C"/>
<path d="M253.37 96.7964C223.25 96.7964 199.43 79.767 176.39 63.3045C153.53 46.9625 129.88 30.0658 100.18 30.0658C70.4798 30.0658 46.8298 46.9625 23.9698 63.3045C11.7198 72.0604 -0.950234 81.1178 -14.4402 87.5099L-14.9902 85.8214C-1.62023 79.4776 10.9998 70.4684 23.1998 61.7366C46.2398 45.274 70.0598 28.2446 100.18 28.2446C130.3 28.2446 154.12 45.274 177.16 61.7366C200.02 78.0786 223.67 94.9753 253.37 94.9753C283.07 94.9753 306.72 78.0786 329.58 61.7366C352.62 45.274 376.44 28.2446 406.56 28.2446V30.0537C376.85 30.0537 353.21 46.9504 330.35 63.2924C307.31 79.755 283.49 96.7844 253.37 96.7844V96.7964Z" fill="#7C7C7C"/>
<path d="M253.37 84.6636C223.25 84.6636 199.43 67.6342 176.39 51.1716C153.53 34.8297 129.88 17.9209 100.18 17.9209C70.48 17.9209 46.83 34.8176 23.97 51.1596C11.7 59.9155 -0.97 68.9729 -14.45 75.365L-15 73.6765C-1.63 67.3327 10.99 58.3235 23.19 49.5917C46.23 33.1291 70.05 16.0997 100.17 16.0997C130.29 16.0997 154.11 33.1291 177.15 49.5917C200.01 65.9337 223.66 82.8425 253.36 82.8425C283.06 82.8425 306.71 65.9457 329.57 49.5917C352.61 33.1291 376.43 16.0997 406.55 16.0997V17.9088C376.84 17.9088 353.2 34.8055 330.34 51.1596C307.3 67.6221 283.48 84.6516 253.36 84.6516L253.37 84.6636Z" fill="#7C7C7C"/>
<path d="M253.37 72.5187C223.25 72.5187 199.43 55.4893 176.39 39.0268C153.52 22.6848 129.88 5.77599 100.17 5.77599C70.46 5.77599 46.82 22.6848 23.96 39.0268C11.7 47.7827 -0.97 56.8401 -14.45 63.2322L-15 61.5437C-1.63 55.1999 10.99 46.1786 23.19 37.4589C46.23 20.9963 70.05 3.96692 100.17 3.96692C130.29 3.96692 154.11 20.9963 177.15 37.4589C200.01 53.8009 223.66 70.6976 253.36 70.6976C283.06 70.6976 306.71 53.8009 329.57 37.4589C352.61 20.9843 376.43 3.96692 406.55 3.96692V5.77599C376.84 5.77599 353.2 22.6727 330.34 39.0147C307.3 55.4893 283.48 72.5067 253.36 72.5067L253.37 72.5187Z" fill="#7C7C7C"/>
<path d="M253.37 60.3858C223.25 60.3858 199.43 43.3564 176.39 26.8818C164.11 18.1017 151.41 9.0202 137.94 2.67638L138.49 0.987915C152.08 7.39203 164.83 16.5098 177.16 25.326C200.03 41.6679 223.67 58.5767 253.38 58.5767C283.09 58.5767 306.73 41.68 329.59 25.338C341.92 16.5218 354.68 7.40409 368.26 0.999976L368.81 2.68844C355.34 9.03226 342.64 18.1138 330.35 26.8938C307.31 43.3685 283.49 60.3858 253.37 60.3858Z" fill="#7C7C7C"/>
<path d="M-14.45 51.0993L-15 49.4108C-1.63 43.067 10.99 34.0578 23.19 25.326C35.53 16.5218 48.28 7.40412 61.87 1L62.42 2.68847C48.95 9.03229 36.25 18.1138 23.97 26.8939C11.7 35.6498 -0.97 44.7072 -14.45 51.0993Z" fill="#7C7C7C"/>
<path d="M253.37 48.2529C223.25 48.2529 199.43 31.2235 176.39 14.7489C170.72 10.6966 164.85 6.49953 158.98 2.62812L159.7 1.03613C165.59 4.91961 171.47 9.11666 177.15 13.181C200.01 29.523 223.66 46.4318 253.37 46.4318C283.08 46.4318 306.72 29.5351 329.59 13.181C335.28 9.11666 341.15 4.91961 347.04 1.03613L347.76 2.62812C341.9 6.49953 336.03 10.6966 330.35 14.7489C307.31 31.2235 283.49 48.2529 253.37 48.2529Z" fill="#7C7C7C"/>
<path d="M-14.45 38.9664L-15 37.2779C-1.63 30.9341 10.99 21.9249 23.19 13.2052C28.88 9.14081 34.75 4.93169 40.64 1.04822L41.36 2.6402C35.49 6.51162 29.63 10.7087 23.95 14.761C11.7 23.5169 -0.97 32.5743 -14.45 38.9664Z" fill="#7C7C7C"/>
<path d="M253.37 36.1201C223.25 36.1201 199.43 19.0907 176.39 2.61611L177.15 1.0603C200.02 17.4023 223.66 34.3111 253.37 34.3111C283.08 34.3111 306.71 17.4143 329.58 1.07236L330.35 2.62817C307.31 19.1028 283.49 36.1322 253.37 36.1322V36.1201Z" fill="#7C7C7C"/>
<path d="M-14.45 26.8336L-15 25.1451C-1.63 18.8134 10.98 9.79214 23.17 1.08447L23.95 2.62822C11.69 11.3841 -0.97 20.4416 -14.45 26.8336Z" fill="#7C7C7C"/>
<path d="M253.37 23.9873C229.43 23.9873 209.84 13.1931 193.84 2.6402L194.56 1.04822C210.39 11.4926 229.77 22.1782 253.37 22.1782C276.97 22.1782 296.34 11.4926 312.18 1.04822L312.9 2.6402C296.9 13.1931 277.31 23.9873 253.37 23.9873Z" fill="#7C7C7C"/>
<path d="M253.37 11.8544C240.68 11.8544 228.15 8.85138 215.06 2.68847L215.61 1C228.52 7.07849 240.87 10.0454 253.37 10.0454C265.87 10.0454 278.22 7.09055 291.13 1L291.68 2.68847C278.59 8.85138 266.06 11.8544 253.38 11.8544H253.37Z" fill="#7C7C7C"/>
</svg>