<svg width="103" height="103" viewBox="0 0 103 103" fill="none" xmlns="http://www.w3.org/2000/svg">
<path d="M13.6436 33.2278L5.11133 28.2562L8.54383 22.4209L10.0562 23.3027L7.64413 27.4015L9.4663 28.4693L11.2042 25.5222L12.687 26.3859L10.9468 29.333L14.6549 31.4935L13.6436 33.2278Z" fill="#E9155A"/>
<path d="M17.4512 27.1272L9.57715 21.174L10.716 19.6778L18.59 25.631L17.4512 27.1272Z" fill="#E9155A"/>
<path d="M22.804 19.8773C22.8192 20.7841 22.4396 21.6289 21.6651 22.4118C20.8907 23.1947 20.0465 23.5831 19.1323 23.5771C18.2213 23.5771 17.3595 23.1758 16.5471 22.3733C15.7348 21.5707 15.3164 20.7221 15.2921 19.8274C15.2739 18.9206 15.6535 18.0735 16.431 17.2861C17.2084 16.4986 18.0527 16.1057 18.9638 16.1072C19.8749 16.1072 20.7381 16.51 21.5535 17.3155C22.369 18.1211 22.7858 18.975 22.804 19.8773ZM19.2736 21.7997C19.5073 21.8147 19.7415 21.7796 19.9603 21.6966C20.1791 21.6136 20.3775 21.4847 20.5419 21.3187C20.7063 21.1527 20.8329 20.9535 20.9131 20.7345C20.9934 20.5155 21.0253 20.2819 21.0069 20.0496C20.8689 19.53 20.5928 19.057 20.2076 18.6804C19.8224 18.3038 19.3424 18.0375 18.818 17.9095C18.5843 17.8893 18.349 17.9207 18.1289 18.0014C17.9087 18.0821 17.7092 18.2102 17.5445 18.3765C17.3799 18.5428 17.2541 18.7432 17.1762 18.9634C17.0983 19.1836 17.0701 19.4183 17.0938 19.6506C17.2037 20.1772 17.4818 20.6543 17.8864 21.0108C18.2521 21.4147 18.7383 21.6912 19.2736 21.7997Z" fill="#E9155A"/>
<path d="M24.7951 19.3219L20.5586 13.7019L21.948 12.6636L22.5698 13.4865C22.5798 13.0216 22.6967 12.5651 22.9114 12.152C23.1262 11.739 23.4332 11.3805 23.8089 11.1039L24.868 12.5094C24.2211 12.9931 23.8339 13.4465 23.7064 13.8697C23.5811 14.2959 23.7064 14.7538 24.0663 15.2299L26.2984 18.1906L24.7951 19.3219Z" fill="#E9155A"/>
<path d="M24.3347 9.74821L23.394 8.2293L25.1752 7.13886L26.1136 8.66004L24.3347 9.74821ZM28.6624 16.5629L24.9588 10.5666L26.5669 9.58045L30.2659 15.5677L28.6624 16.5629Z" fill="#E9155A"/>
<path d="M33.2545 14.144C32.6714 14.444 32.0022 14.5352 31.3595 14.4024C31.0701 14.3284 30.8025 14.1871 30.5788 13.99C30.355 13.7929 30.1815 13.5458 30.0726 13.2689C29.9315 12.9966 29.8555 12.6954 29.8508 12.3891C29.8461 12.0827 29.9126 11.7794 30.0453 11.5029C30.314 10.9527 30.869 10.485 31.7103 10.0996L33.3775 9.34014L33.2295 9.02049C32.8863 8.27237 32.3374 8.06758 31.5827 8.40612C30.9374 8.70839 30.68 9.18296 30.8106 9.82981L29.1364 10.5938C28.9479 9.92686 29.0245 9.21325 29.3506 8.60109C29.7219 7.93368 30.3108 7.41228 31.0201 7.12299C31.96 6.69376 32.7656 6.59704 33.4368 6.83281C33.7707 6.95213 34.076 7.13961 34.3329 7.38322C34.5898 7.62683 34.7927 7.92119 34.9286 8.24743L36.1746 10.9543C36.3862 11.4292 36.6538 11.8775 36.9717 12.2895L35.5322 12.9606C35.3415 12.7132 35.1802 12.4447 35.0516 12.1603C34.9189 12.603 34.6888 13.0108 34.3779 13.3539C34.0671 13.697 33.6833 13.9669 33.2545 14.144ZM33.0678 12.7656C33.2859 12.6841 33.4845 12.5581 33.6508 12.3956C33.8171 12.2332 33.9474 12.038 34.0335 11.8225C34.1024 11.6289 34.1319 11.4235 34.1202 11.2183C34.1084 11.0132 34.0558 10.8124 33.9652 10.6278L33.8763 10.4351L32.2455 11.1787C31.6093 11.4659 31.4271 11.8989 31.6989 12.4777C31.7418 12.5903 31.8129 12.6902 31.9053 12.7679C31.9977 12.8457 32.1086 12.8987 32.2273 12.922C32.5163 12.9591 32.8096 12.9044 33.0655 12.7656H33.0678Z" fill="#E9155A"/>
<path d="M37.7143 12.047L35.9468 5.2459L37.63 4.81517L37.8578 5.6857H37.8714C38.0797 5.27861 38.3765 4.92276 38.7401 4.64397C39.1037 4.36518 39.5251 4.17043 39.9738 4.07385C40.7208 3.88342 41.348 3.98619 41.8551 4.38216C42.4009 4.83906 42.777 5.46484 42.9234 6.15951L44.0281 10.4283L42.1922 10.8999L41.1126 6.72853C40.8939 5.88671 40.4149 5.56102 39.6754 5.75145C39.4614 5.79386 39.2594 5.88268 39.0839 6.01159C38.9083 6.1405 38.7634 6.30634 38.6595 6.4973C38.4636 6.90748 38.4295 7.37588 38.5639 7.80991L39.5433 11.5754L37.7143 12.047Z" fill="#E9155A"/>
<path d="M48.3604 9.83889L48.6063 0L50.6403 0.0498745L50.5401 4.03077L54.517 4.12825L54.6172 0.149624L56.6512 0.199498L56.4029 10.0384L54.3712 9.98851L54.4737 5.85799L50.4968 5.75824L50.3921 9.88876L48.3604 9.83889Z" fill="#E9155A"/>
<path d="M59.8674 10.9293C59.5207 10.8703 59.1921 10.7332 58.9067 10.5285C58.6213 10.3238 58.3866 10.0569 58.2206 9.74821C57.9033 9.12855 57.8425 8.38875 58.0384 7.52879L58.9928 3.3824L60.8423 3.79953L59.9038 7.85524C59.6897 8.79681 59.9934 9.3613 60.8149 9.54871C61.0131 9.60625 61.2221 9.61716 61.4253 9.58057C61.6284 9.54398 61.8203 9.4609 61.9857 9.33787C62.3258 9.04559 62.5536 8.64502 62.6303 8.20436L63.5003 4.40936L65.3476 4.82876L63.7759 11.6774L62.0813 11.292L62.2818 10.417H62.2681C61.934 10.6795 61.5439 10.8623 61.1276 10.9511C60.7114 11.0399 60.2803 11.0325 59.8674 10.9293Z" fill="#E9155A"/>
<path d="M64.8916 12.1263L67.4745 5.58595L69.0917 6.21845L68.7136 7.1774H68.725C69.1276 6.94139 69.5793 6.80047 70.0453 6.76549C70.5112 6.73051 70.979 6.8024 71.4127 6.97564L70.7681 8.6147C70.0088 8.31998 69.4166 8.23081 68.9915 8.34719C68.5663 8.46356 68.2391 8.80513 68.0098 9.37188L66.6432 12.8132L64.8916 12.1263Z" fill="#E9155A"/>
<path d="M71.8954 15.4679C71.4692 15.2502 71.0918 14.9487 70.786 14.5816C70.4803 14.2146 70.2525 13.7896 70.1165 13.3324C69.8614 12.4361 70.0133 11.4991 70.5721 10.5213C71.1309 9.54341 71.859 8.93132 72.7564 8.68497C73.2162 8.56481 73.6958 8.53942 74.1658 8.61037C74.6358 8.68132 75.0863 8.84711 75.4896 9.09757C76.4584 9.64619 77.0536 10.3641 77.2753 11.2512C77.3867 11.6805 77.4117 12.1274 77.3488 12.5663C77.2858 13.0052 77.1362 13.4274 76.9086 13.8084L76.4531 14.6019L71.8977 12.0334C71.515 12.9281 71.7686 13.6256 72.6584 14.1258C73.3554 14.5173 73.9203 14.5233 74.353 14.144L76.0317 15.0938C75.527 15.5945 74.8587 15.8985 74.1481 15.9508C73.3646 16.0343 72.5749 15.865 71.8954 15.4679ZM72.6106 10.7978L75.4828 12.421C75.8229 11.5762 75.5678 10.9165 74.7175 10.4419C74.3684 10.2233 73.9533 10.1335 73.5445 10.188C73.3555 10.2215 73.1752 10.2928 73.0147 10.3976C72.8542 10.5024 72.7167 10.6386 72.6106 10.7978Z" fill="#E9155A"/>
<path d="M75.6899 17.7168L81.6416 9.85929L83.1494 10.9928L77.2001 18.8503L75.6899 17.7168Z" fill="#E9155A"/>
<path d="M83.0542 19.2493L84.2272 18.177L87.4957 21.7204L86.325 22.7927L83.0542 19.2493Z" fill="#E9155A"/>
<path d="M86.2563 28.4829L94.882 23.6723L98.2029 29.5665L96.6746 30.4189L94.3422 26.2771L92.4881 27.3108L94.1714 30.2988L92.6726 31.1331L90.9917 28.1474L87.2358 30.2376L86.2563 28.4829Z" fill="#E9155A"/>
<path d="M89.6187 34.8396L98.7636 31.0968L99.4834 32.8356L90.3384 36.5784L89.6187 34.8396Z" fill="#E9155A"/>
<path d="M93.181 43.1007C92.3899 42.6473 91.8516 41.8916 91.5661 40.8337C91.2806 39.7757 91.3717 38.8523 91.8394 38.0633C92.3056 37.2835 93.0899 36.7477 94.1923 36.456C95.2947 36.1643 96.243 36.2399 97.0372 36.6827C97.8328 37.1271 98.3727 37.8827 98.6566 38.9498C98.9406 40.0168 98.854 40.9379 98.3969 41.7133C97.9414 42.4931 97.1548 43.0296 96.0372 43.3228C94.9212 43.6244 93.9691 43.5473 93.181 43.1007ZM93.3086 39.0971C93.176 39.2895 93.0868 39.5082 93.0471 39.7381C93.0074 39.968 93.0181 40.2038 93.0784 40.4292C93.1388 40.6546 93.2474 40.8644 93.3968 41.0442C93.5462 41.2239 93.7329 41.3694 93.944 41.4707C94.4635 41.6156 95.0126 41.6185 95.5336 41.4793C96.0546 41.3401 96.5283 41.0638 96.9051 40.6795C97.0421 40.4894 97.1352 40.2716 97.1778 40.0415C97.2203 39.8114 97.2112 39.5748 97.1511 39.3486C97.0911 39.1225 96.9815 38.9123 96.8303 38.7332C96.679 38.5541 96.4899 38.4105 96.2764 38.3127C95.7579 38.1667 95.2095 38.162 94.6886 38.2992C94.1677 38.4364 93.6934 38.7104 93.3154 39.0926L93.3086 39.0971Z" fill="#E9155A"/>
<path d="M92.6455 45.0843L99.6631 44.3135L99.8544 46.0319L98.8272 46.1453V46.1589C99.2242 46.4027 99.5597 46.7338 99.8081 47.1268C100.056 47.5198 100.211 47.9642 100.26 48.4259L98.506 48.6186C98.4172 47.8184 98.219 47.2584 97.9161 46.9297C97.6132 46.601 97.1554 46.4763 96.5495 46.542L92.8551 46.9478L92.6455 45.0843Z" fill="#E9155A"/>
<path d="M93.0757 49.7861L100.137 49.6546L100.171 51.534L93.1098 51.6655L93.0757 49.7861ZM101.168 49.539L102.961 49.5073L103 51.5862L101.207 51.6179L101.168 49.539Z" fill="#E9155A"/>
<path d="M92.8278 54.9708C92.8647 54.3184 93.1252 53.6983 93.5658 53.2139C93.7752 53.0033 94.0318 52.845 94.3144 52.752C94.5971 52.659 94.8978 52.6339 95.1921 52.6789C95.4992 52.6957 95.7982 52.7831 96.0657 52.9341C96.3332 53.0851 96.562 53.2957 96.7341 53.5494C97.0773 54.0617 97.2018 54.7751 97.1076 55.6895L96.9209 57.5031L97.2716 57.5371C98.0947 57.6217 98.5502 57.2545 98.6383 56.4353C98.7112 55.7348 98.431 55.2723 97.7955 55.0524L97.9846 53.2388C98.6579 53.4139 99.2373 53.8411 99.6017 54.4313C99.9908 55.089 100.143 55.8589 100.034 56.6144C99.9297 57.6376 99.6063 58.3774 99.0642 58.8338C98.7912 59.0593 98.474 59.226 98.1329 59.3231C97.7918 59.4203 97.4342 59.4459 97.0826 59.3983L94.1056 59.0945C93.5874 59.0328 93.0636 59.0328 92.5454 59.0945L92.7071 57.5076C93.018 57.4692 93.3324 57.4692 93.6433 57.5076C93.3271 57.1713 93.09 56.7692 92.9489 56.3305C92.8079 55.8918 92.7666 55.4274 92.8278 54.9708ZM94.117 55.5081C94.078 55.7369 94.0869 55.9712 94.1434 56.1963C94.1998 56.4215 94.3025 56.6325 94.445 56.8162C94.5783 56.9731 94.7416 57.1022 94.9253 57.196C95.1091 57.2898 95.3097 57.3464 95.5155 57.3625L95.7274 57.3829L95.9096 55.6078C95.9794 54.9172 95.697 54.5393 95.0623 54.4743C94.944 54.455 94.8227 54.4656 94.7097 54.5052C94.5966 54.5448 94.4954 54.6122 94.4154 54.701C94.2324 54.9317 94.1279 55.2144 94.117 55.5081Z" fill="#E9155A"/>
<path d="M92.3853 59.8676L99.1752 61.7968L98.6968 63.4608L97.829 63.2137V63.2273C98.0781 63.6114 98.2378 64.0461 98.2966 64.4995C98.3553 64.9529 98.3115 65.4136 98.1684 65.848C97.9566 66.5871 97.5489 67.0745 96.9498 67.308C96.2776 67.5427 95.5461 67.5483 94.8703 67.3238L90.6064 66.111L91.1258 64.2974L95.2826 65.4785C96.1238 65.7158 96.6492 65.4694 96.8587 64.7394C96.9296 64.5341 96.9543 64.3158 96.931 64.1C96.9078 63.8842 96.8373 63.676 96.7244 63.4903C96.4695 63.1143 96.0815 62.848 95.6379 62.7445L91.8774 61.6767L92.3853 59.8676Z" fill="#E9155A"/>
<path d="M88.91 70.1236L97.2965 75.3378L96.2192 77.0539L92.8277 74.9456L90.7208 78.3053L94.1123 80.4136L93.0349 82.1298L84.6484 76.9156L85.7258 75.1995L89.2471 77.3872L91.354 74.0297L87.8327 71.8398L88.91 70.1236Z" fill="#E9155A"/>
<path d="M82.1224 79.4207C82.3509 79.1529 82.6381 78.9411 82.962 78.8015C83.2859 78.662 83.6377 78.5984 83.9902 78.6159C84.6871 78.6567 85.3583 78.9801 86.0037 79.5862L89.1036 82.4993L87.8008 83.8595L84.7623 81.0031C84.0593 80.3411 83.4162 80.3162 82.8331 80.9282C82.6825 81.0684 82.5668 81.2416 82.4952 81.434C82.4237 81.6265 82.3982 81.8329 82.4208 82.0368C82.5013 82.4793 82.7341 82.88 83.0791 83.1703L85.9217 85.8432L84.6188 87.2147L79.4917 82.3995L80.6852 81.1414L81.3435 81.758C81.2836 81.335 81.3228 80.904 81.4579 80.4985C81.5931 80.0931 81.8205 79.7242 82.1224 79.4207Z" fill="#E9155A"/>
<path d="M78.5285 83.1295L82.8858 88.6588L81.5191 89.7266L80.8814 88.915H80.87C80.8707 89.3803 80.764 89.8395 80.5583 90.2573C80.3526 90.6751 80.0532 91.0403 79.6833 91.3248L78.5946 89.9419C79.2301 89.4455 79.6081 88.9807 79.7334 88.5522C79.8587 88.1238 79.7198 87.6704 79.3439 87.192L77.0435 84.288L78.5285 83.1295Z" fill="#E9155A"/>
<path d="M72.0892 87.4505C72.4932 87.1947 72.9449 87.0226 73.4173 86.9447C73.8897 86.8668 74.373 86.8846 74.8384 86.9971C75.7494 87.2328 76.4851 87.8374 77.0454 88.8107C77.6058 89.784 77.7675 90.7188 77.5306 91.615C77.4024 92.0694 77.1823 92.493 76.8838 92.8598C76.5854 93.2266 76.2149 93.5289 75.795 93.7483C74.8323 94.3014 73.909 94.4488 73.0253 94.1903C72.5971 94.0693 72.1972 93.8651 71.8485 93.5897C71.4998 93.3142 71.2093 92.9729 70.9936 92.5853L70.5381 91.7941L75.0638 89.1916C74.4868 88.4087 73.7542 88.2727 72.8659 88.7835C72.1826 89.1802 71.8842 89.6631 71.9935 90.2276L70.3217 91.1888C70.1427 90.5018 70.2179 89.7736 70.5335 89.1371C70.8555 88.4225 71.4013 87.8308 72.0892 87.4505ZM75.7745 90.4271L72.916 92.0707C73.4763 92.7886 74.1771 92.9034 75.0183 92.4153C75.3842 92.2262 75.6713 91.9147 75.8292 91.5357C75.8967 91.357 75.9266 91.1664 75.9172 90.9757C75.9078 90.7851 75.8592 90.5983 75.7745 90.4271Z" fill="#E9155A"/>
<path d="M68.2219 89.5701L72.0211 98.6564L70.2764 99.3795L66.4795 90.2933L68.2219 89.5701Z" fill="#E9155A"/>
<path d="M63.1611 95.113L63.4914 96.6637L58.7652 97.6657L58.4326 96.1219L63.1611 95.113Z" fill="#E9155A"/>
<path d="M53.5425 93.1611L53.3284 103L46.5386 102.855L46.575 101.112L51.3582 101.214L51.4037 99.1007L47.9644 99.0282L48.0009 97.3189L51.4402 97.3914L51.5336 93.1181L53.5425 93.1611Z" fill="#E9155A"/>
<path d="M46.3308 92.8211L44.9437 102.569L43.0737 102.306L44.4609 92.5581L46.3308 92.8211Z" fill="#E9155A"/>
<path d="M37.3705 91.6966C38.157 91.2432 39.0848 91.1677 40.1538 91.4699C41.2228 91.7722 41.9775 92.3178 42.4179 93.1067C42.8582 93.9017 42.925 94.8463 42.6183 95.9405C42.3131 97.0332 41.7687 97.8085 40.9784 98.2642C40.188 98.7199 39.2632 98.8015 38.1927 98.5068C37.1222 98.2121 36.3706 97.668 35.9287 96.8768C35.4868 96.0856 35.4208 95.138 35.7283 94.0362C36.0357 92.9344 36.5824 92.1478 37.3705 91.6966ZM40.7711 93.8322C40.6713 93.6212 40.5269 93.4342 40.3479 93.2838C40.1688 93.1334 39.9593 93.0233 39.7336 92.9609C39.5078 92.8985 39.2712 92.8853 39.0399 92.9222C38.8086 92.9591 38.588 93.0452 38.3932 93.1747C37.9829 93.5299 37.6979 94.0067 37.58 94.535C37.4064 95.0498 37.4064 95.607 37.58 96.1219C37.6758 96.3347 37.8175 96.524 37.9951 96.6761C38.1727 96.8283 38.3818 96.9396 38.6076 97.0021C38.8333 97.0647 39.0701 97.0769 39.3012 97.038C39.5322 96.9991 39.7518 96.91 39.9443 96.777C40.3354 96.405 40.6186 95.935 40.764 95.4164C40.9095 94.8978 40.912 94.3498 40.7711 93.8299V93.8322Z" fill="#E9155A"/>
<path d="M35.92 90.2276L33.0274 96.6455L31.433 95.9382L31.8566 94.9997H31.843C31.4297 95.217 30.9719 95.337 30.5047 95.3503C30.0375 95.3637 29.5735 95.2701 29.1484 95.0768L29.8705 93.474C30.6107 93.8027 31.1961 93.9274 31.6334 93.8231C32.0707 93.7188 32.4124 93.4014 32.6629 92.846L34.1822 89.4704L35.92 90.2276Z" fill="#E9155A"/>
<path d="M27.7241 95.2785L26.8427 96.8314L25.0205 95.809L25.902 94.2561L27.7241 95.2785ZM31.6213 88.2145L28.1478 94.3354L26.5033 93.4014L29.9768 87.2804L31.6213 88.2145Z" fill="#E9155A"/>
<path d="M27.2739 85.3739C27.8183 85.7382 28.2204 86.2776 28.4127 86.9019C28.489 87.1881 28.4958 87.4883 28.4324 87.7777C28.369 88.067 28.2374 88.3372 28.0483 88.5659C27.878 88.821 27.6505 89.0333 27.3837 89.1859C27.1169 89.3386 26.8181 89.4274 26.5108 89.4455C25.8959 89.4787 25.2126 89.2225 24.4609 88.6769L23.0055 87.5933L22.7959 87.8744C22.3039 88.5364 22.3897 89.1137 23.0533 89.6064C23.6227 90.0266 24.1641 90.0205 24.6773 89.5883L26.1601 90.6765C25.6661 91.1644 25.0019 91.4438 24.306 91.4563C23.5389 91.4564 22.7948 91.1956 22.1969 90.7173C21.3632 90.1127 20.888 89.4591 20.771 88.7563C20.7143 88.4074 20.7314 88.0505 20.8212 87.7085C20.911 87.3666 21.0716 87.047 21.2926 86.7704L23.0692 84.3741C23.3839 83.9595 23.6477 83.509 23.855 83.0321L25.1374 83.9751C25.0138 84.2611 24.8562 84.5312 24.6682 84.7799C25.1196 84.6814 25.5874 84.6836 26.0379 84.7863C26.4884 84.889 26.9105 85.0897 27.2739 85.3739ZM26.1532 86.2059C25.9757 86.0561 25.7688 85.9447 25.5457 85.8787C25.3226 85.8128 25.0881 85.7937 24.8572 85.8228C24.6535 85.8561 24.4585 85.9297 24.2836 86.0391C24.1088 86.1485 23.9577 86.2915 23.8391 86.4598L23.7116 86.6321L25.1556 87.6908C25.7174 88.1034 26.1859 88.0528 26.561 87.5389C26.6388 87.4458 26.6913 87.3344 26.7137 87.2154C26.736 87.0963 26.7273 86.9736 26.6885 86.8588C26.5823 86.5913 26.3953 86.3631 26.1532 86.2059Z" fill="#E9155A"/>
<path d="M23.2643 82.5038L18.1486 87.3485L16.9528 86.0971L17.6065 85.4668C17.1478 85.4835 16.6912 85.3984 16.2696 85.2176C15.8481 85.0369 15.4722 84.765 15.1694 84.4217C14.6364 83.8641 14.4208 83.2686 14.5225 82.6353C14.6594 81.9391 15.0266 81.3085 15.5657 80.8444L18.7773 77.802L20.0847 79.1622L16.9437 82.1343C16.3105 82.7388 16.2566 83.3139 16.782 83.8595C16.9225 84.0233 17.0972 84.1548 17.2938 84.2448C17.4905 84.3349 17.7044 84.3813 17.9208 84.3809C18.3808 84.3549 18.8137 84.1565 19.1326 83.8255L21.9638 81.1414L23.2643 82.5038Z" fill="#E9155A"/>
<path d="M16.1372 74.3221L7.3772 78.8924L6.43423 77.0992L9.97606 75.2516L8.13112 71.7445L4.58929 73.5899L3.64404 71.7899L12.4064 67.2263L13.3493 69.0196L9.67084 70.9352L11.5158 74.4445L15.1943 72.5266L16.1372 74.3221Z" fill="#E9155A"/>
<path d="M11.519 63.7873C11.6342 64.1196 11.6715 64.4738 11.6281 64.8227C11.5847 65.1717 11.4616 65.5061 11.2684 65.8004C10.8151 66.4196 10.1543 66.857 9.40526 67.0337L5.3054 68.2125L4.77697 66.3989L8.79029 65.2404C9.72262 64.9729 10.0711 64.4349 9.83575 63.6263C9.78958 63.4276 9.69765 63.2422 9.56721 63.0848C9.43677 62.9275 9.27139 62.8024 9.08411 62.7195C8.66072 62.5635 8.19591 62.5595 7.76987 62.7082L4.01622 63.7895L3.48779 61.9759L10.2708 60.0195L10.7537 61.6812L9.88586 61.9306V61.9442C10.2817 62.1064 10.6348 62.3569 10.918 62.6765C11.2012 62.9961 11.4068 63.3761 11.519 63.7873Z" fill="#E9155A"/>
<path d="M10.1335 58.827L3.13416 59.7474L2.90639 58.0336L3.93135 57.8998V57.8862C3.52912 57.6499 3.1867 57.3248 2.93043 56.9362C2.67416 56.5475 2.51087 56.1055 2.45312 55.6441L4.2024 55.4174C4.30718 56.2154 4.51672 56.7776 4.82877 57.0927C5.14081 57.4079 5.59863 57.5325 6.19539 57.4532L9.88071 56.9681L10.1335 58.827Z" fill="#E9155A"/>
<path d="M9.67136 51.1101C9.68467 51.5856 9.60158 52.0589 9.42704 52.5018C9.2525 52.9447 8.9901 53.348 8.6555 53.6877C7.98586 54.3406 7.08616 54.658 5.95642 54.6398C4.81757 54.6217 3.9361 54.2771 3.29151 53.6106C2.96644 53.2673 2.71499 52.8617 2.55248 52.4186C2.38997 51.9754 2.31981 51.504 2.34626 51.033C2.36449 49.9237 2.71222 49.0592 3.38945 48.4395C3.71412 48.1365 4.09578 47.9004 4.51248 47.7448C4.92918 47.5892 5.37269 47.5171 5.81748 47.5327L6.72857 47.5463L6.64429 52.7605C7.61687 52.6698 8.11113 52.1166 8.12707 51.0942C8.14074 50.2985 7.87425 49.8043 7.32988 49.607L7.36177 47.6846C8.0449 47.8863 8.63303 48.3246 9.01993 48.9201C9.46833 49.5613 9.69681 50.3293 9.67136 51.1101ZM5.21161 52.7265L5.264 49.4393C4.35292 49.5481 3.89358 50.0877 3.88599 51.0579C3.86238 51.4672 3.98234 51.8719 4.22537 52.2028C4.3462 52.3513 4.49574 52.4742 4.66515 52.5641C4.83456 52.6541 5.02038 52.7093 5.21161 52.7265Z" fill="#E9155A"/>
<path d="M9.79412 46.7143L0 45.3722L0.25738 43.5087L10.0515 44.8531L9.79412 46.7143Z" fill="#E9155A"/>
<path d="M7.55504 39.5664L6.04492 39.0654L7.5687 34.4996L9.0811 35.0006L7.55504 39.5664Z" fill="#E9155A"/>
</svg>
