<svg width="116" height="116" viewBox="0 0 116 116" fill="none" xmlns="http://www.w3.org/2000/svg">
<path d="M15.3655 37.4216L5.75635 31.8225L9.62207 25.2507L11.3254 26.2439L8.60883 30.86L10.661 32.0625L12.6182 28.7434L14.2881 29.7162L12.3283 33.0353L16.5044 35.4684L15.3655 37.4216Z" fill="#E9145A"/>
<path d="M19.6544 30.551L10.7866 23.8465L12.0692 22.1614L20.937 28.866L19.6544 30.551Z" fill="#E9145A"/>
<path d="M25.6826 22.3861C25.6997 23.4073 25.2722 24.3588 24.4 25.2405C23.5278 26.1222 22.577 26.5596 21.5475 26.5528C20.5215 26.5528 19.551 26.1009 18.636 25.1971C17.7211 24.2933 17.25 23.3375 17.2226 22.3299C17.2021 21.3086 17.6296 20.3546 18.5052 19.4678C19.3808 18.581 20.3316 18.1385 21.3577 18.1402C22.3838 18.1402 23.356 18.5938 24.2743 19.501C25.1926 20.4082 25.6621 21.3699 25.6826 22.3861ZM21.7066 24.5511C21.9698 24.5681 22.2335 24.5284 22.48 24.435C22.7264 24.3415 22.9498 24.1964 23.135 24.0094C23.3201 23.8225 23.4627 23.5981 23.5531 23.3515C23.6434 23.1049 23.6794 22.8418 23.6587 22.5801C23.5033 21.9949 23.1923 21.4623 22.7585 21.0382C22.3247 20.614 21.7841 20.3141 21.1935 20.1699C20.9303 20.1472 20.6653 20.1825 20.4174 20.2734C20.1695 20.3643 19.9448 20.5085 19.7593 20.6958C19.5739 20.8831 19.4322 21.1088 19.3445 21.3568C19.2567 21.6049 19.225 21.8691 19.2517 22.1307C19.3755 22.7238 19.6886 23.2612 20.1444 23.6626C20.5562 24.1175 21.1037 24.4289 21.7066 24.5511Z" fill="#E9145A"/>
<path d="M27.9246 21.7605L23.1533 15.4313L24.7181 14.2619L25.4184 15.1887C25.4296 14.6651 25.5612 14.151 25.8031 13.6858C26.045 13.2207 26.3908 12.8168 26.8138 12.5054L28.0066 14.0883C27.2781 14.633 26.842 15.1436 26.6984 15.6202C26.5573 16.1002 26.6984 16.6159 27.1037 17.1521L29.6176 20.4865L27.9246 21.7605Z" fill="#E9145A"/>
<path d="M27.4063 10.9786L26.3469 9.26795L28.3529 8.03989L29.4097 9.75305L27.4063 10.9786ZM32.2802 18.6533L28.1092 11.9003L29.9202 10.7896L34.0861 17.5325L32.2802 18.6533Z" fill="#E9145A"/>
<path d="M37.4516 15.9291C36.7948 16.267 36.0413 16.3698 35.3174 16.2202C34.9915 16.1369 34.6901 15.9777 34.4382 15.7558C34.1862 15.5338 33.9908 15.2555 33.8681 14.9436C33.7091 14.6369 33.6236 14.2978 33.6183 13.9528C33.613 13.6077 33.6879 13.2661 33.8373 12.9547C34.14 12.3351 34.765 11.8083 35.7124 11.3743L37.5901 10.519L37.4234 10.159C37.0369 9.31647 36.4187 9.08583 35.5688 9.4671C34.842 9.80752 34.5521 10.342 34.6992 11.0705L32.8138 11.9309C32.6014 11.1798 32.6877 10.3761 33.0549 9.68667C33.4731 8.93503 34.1364 8.34783 34.9352 8.02202C35.9937 7.53862 36.901 7.42969 37.6568 7.69521C38.033 7.8296 38.3767 8.04074 38.6661 8.31509C38.9554 8.58945 39.184 8.92097 39.337 9.28838L40.7402 12.3368C40.9785 12.8718 41.2799 13.3766 41.638 13.8407L40.0168 14.5964C39.802 14.3178 39.6204 14.0154 39.4756 13.6951C39.3261 14.1937 39.0669 14.6529 38.7168 15.0394C38.3667 15.4258 37.9345 15.7298 37.4516 15.9291ZM37.2413 14.3768C37.4869 14.285 37.7106 14.1431 37.8979 13.9602C38.0852 13.7773 38.232 13.5574 38.3289 13.3147C38.4066 13.0966 38.4397 12.8653 38.4265 12.6342C38.4133 12.4032 38.354 12.1771 38.252 11.9692L38.1519 11.7522L36.3153 12.5896C35.5987 12.913 35.3935 13.4007 35.6996 14.0526C35.748 14.1794 35.828 14.2919 35.9321 14.3794C36.0362 14.467 36.161 14.5267 36.2947 14.553C36.6202 14.5947 36.9506 14.5331 37.2387 14.3768H37.2413Z" fill="#E9145A"/>
<path d="M42.4742 13.5675L40.4836 5.908L42.3793 5.4229L42.6358 6.40331H42.6512C42.8858 5.94484 43.22 5.54408 43.6295 5.2301C44.039 4.91612 44.5136 4.69679 45.0189 4.58802C45.8603 4.37355 46.5665 4.4893 47.1377 4.93525C47.7523 5.44981 48.1759 6.15457 48.3408 6.93692L49.5849 11.7445L47.5174 12.2756L46.3015 7.57776C46.0552 6.62969 45.5157 6.26289 44.6828 6.47735C44.4419 6.52512 44.2144 6.62515 44.0167 6.77034C43.8189 6.91552 43.6558 7.10228 43.5388 7.31734C43.3182 7.77929 43.2797 8.30681 43.431 8.79562L44.5341 13.0364L42.4742 13.5675Z" fill="#E9145A"/>
<path d="M54.4639 11.0807L54.7409 0L57.0316 0.0561694L56.9187 4.53951L61.3975 4.64929L61.5104 0.168508L63.8011 0.224678L63.5215 11.3054L61.2334 11.2492L61.3488 6.59735L56.87 6.48501L56.752 11.1369L54.4639 11.0807Z" fill="#E9145A"/>
<path d="M67.4232 12.3088C67.0327 12.2423 66.6626 12.0879 66.3412 11.8573C66.0198 11.6268 65.7555 11.3262 65.5686 10.9786C65.2112 10.2807 65.1427 9.44753 65.3634 8.47903L66.4382 3.80931L68.5211 4.27909L67.4642 8.84668C67.2231 9.90709 67.5651 10.5428 68.4903 10.7539C68.7135 10.8187 68.9488 10.831 69.1777 10.7898C69.4065 10.7486 69.6226 10.655 69.8088 10.5164C70.1918 10.1873 70.4484 9.73614 70.5348 9.23987L71.5147 4.96589L73.595 5.43822L71.825 13.1513L69.9165 12.7173L70.1423 11.7317H70.1269C69.7507 12.0275 69.3112 12.2333 68.8425 12.3333C68.3737 12.4333 67.8882 12.4249 67.4232 12.3088Z" fill="#E9145A"/>
<path d="M73.082 13.6568L75.9909 6.29097L77.8122 7.0033L77.3864 8.08328H77.3992C77.8527 7.81748 78.3614 7.65877 78.8861 7.61938C79.4109 7.57999 79.9378 7.66095 80.4261 7.85605L79.7002 9.70198C78.8451 9.37007 78.1782 9.26965 77.6994 9.40071C77.2205 9.53177 76.852 9.91645 76.5938 10.5547L75.0547 14.4304L73.082 13.6568Z" fill="#E9145A"/>
<path d="M80.97 17.4202C80.49 17.175 80.065 16.8354 79.7206 16.422C79.3763 16.0086 79.1198 15.53 78.9666 15.0151C78.6793 14.0057 78.8503 12.9504 79.4797 11.8492C80.109 10.7479 80.929 10.0586 81.9397 9.78113C82.4575 9.6458 82.9976 9.61721 83.527 9.69712C84.0563 9.77702 84.5636 9.96374 85.0179 10.2458C86.1089 10.8637 86.7793 11.6722 87.029 12.6713C87.1545 13.1547 87.1826 13.6581 87.1117 14.1524C87.0408 14.6466 86.8723 15.1221 86.616 15.5513L86.1029 16.4449L80.9726 13.5521C80.5416 14.5598 80.8272 15.3453 81.8294 15.9087C82.6143 16.3495 83.2505 16.3564 83.7379 15.9291L85.6284 16.9989C85.06 17.5628 84.3073 17.9052 83.507 17.964C82.6246 18.058 81.7353 17.8674 80.97 17.4202ZM81.7755 12.1607L85.0102 13.9887C85.3932 13.0373 85.106 12.2943 84.1483 11.7598C83.7551 11.5136 83.2876 11.4124 82.8272 11.4739C82.6144 11.5116 82.4114 11.5919 82.2306 11.7099C82.0498 11.828 81.895 11.9813 81.7755 12.1607Z" fill="#E9145A"/>
<path d="M85.2434 19.9529L91.9462 11.1037L93.6444 12.3802L86.9441 21.2295L85.2434 19.9529Z" fill="#E9145A"/>
<path d="M93.5366 21.6788L94.8577 20.4712L98.5387 24.4618L97.2202 25.6694L93.5366 21.6788Z" fill="#E9145A"/>
<path d="M97.1433 32.0778L106.858 26.66L110.598 33.2982L108.876 34.2582L106.25 29.5936L104.162 30.7578L106.057 34.1229L104.369 35.0625L102.476 31.7L98.2463 34.054L97.1433 32.0778Z" fill="#E9145A"/>
<path d="M100.93 39.2369L111.229 35.0216L112.039 36.9799L101.74 41.1951L100.93 39.2369Z" fill="#E9145A"/>
<path d="M104.941 48.5406C104.05 48.0299 103.444 47.1789 103.123 45.9874C102.801 44.7959 102.904 43.756 103.431 42.8675C103.956 41.9892 104.839 41.3858 106.08 41.0573C107.322 40.7288 108.39 40.8139 109.284 41.3126C110.18 41.813 110.788 42.6641 111.108 43.8657C111.428 45.0674 111.33 46.1049 110.816 46.978C110.303 47.8563 109.417 48.4606 108.158 48.7908C106.901 49.1303 105.829 49.0435 104.941 48.5406ZM105.085 44.0317C104.936 44.2484 104.835 44.4947 104.791 44.7536C104.746 45.0125 104.758 45.278 104.826 45.5319C104.894 45.7858 105.016 46.0221 105.184 46.2245C105.353 46.427 105.563 46.5908 105.801 46.7048C106.386 46.868 107.004 46.8714 107.591 46.7146C108.178 46.5578 108.711 46.2466 109.136 45.8138C109.29 45.5997 109.395 45.3544 109.443 45.0953C109.491 44.8361 109.48 44.5697 109.413 44.315C109.345 44.0603 109.222 43.8236 109.051 43.6219C108.881 43.4202 108.668 43.2585 108.428 43.1483C107.844 42.9838 107.226 42.9786 106.639 43.1331C106.053 43.2876 105.519 43.5962 105.093 44.0266L105.085 44.0317Z" fill="#E9145A"/>
<path d="M104.339 50.7746L112.242 49.9065L112.457 51.8418L111.301 51.9694V51.9848C111.748 52.2593 112.126 52.6322 112.405 53.0748C112.685 53.5174 112.859 54.0179 112.914 54.5379L110.939 54.7549C110.839 53.8537 110.616 53.223 110.274 52.8528C109.933 52.4826 109.418 52.3422 108.735 52.4162L104.575 52.8733L104.339 50.7746Z" fill="#E9145A"/>
<path d="M104.823 56.0698L112.776 55.9217L112.814 58.0383L104.862 58.1864L104.823 56.0698ZM113.938 55.7915L115.956 55.7558L116 58.097L113.981 58.1328L113.938 55.7915Z" fill="#E9145A"/>
<path d="M104.544 61.9089C104.585 61.1741 104.879 60.4757 105.375 59.9302C105.611 59.693 105.9 59.5148 106.218 59.41C106.536 59.3053 106.875 59.2771 107.207 59.3276C107.552 59.3466 107.889 59.445 108.19 59.6151C108.492 59.7852 108.749 60.0223 108.943 60.3081C109.33 60.8851 109.47 61.6885 109.364 62.7182L109.154 64.7608L109.549 64.7991C110.475 64.8944 110.988 64.4808 111.088 63.5582C111.17 62.7693 110.854 62.2484 110.139 62.0008L110.351 59.9583C111.11 60.1555 111.762 60.6366 112.173 61.3012C112.611 62.042 112.783 62.909 112.66 63.7599C112.542 64.9122 112.178 65.7454 111.567 66.2595C111.26 66.5134 110.903 66.7011 110.519 66.8105C110.134 66.9199 109.732 66.9488 109.336 66.8952L105.983 66.5531C105.399 66.4836 104.809 66.4836 104.226 66.5531L104.408 64.7659C104.758 64.7226 105.112 64.7226 105.462 64.7659C105.106 64.387 104.839 63.9342 104.68 63.4402C104.521 62.9461 104.475 62.4231 104.544 61.9089ZM105.996 62.514C105.952 62.7716 105.962 63.0355 106.026 63.2891C106.089 63.5426 106.205 63.7803 106.365 63.9871C106.515 64.1639 106.699 64.3093 106.906 64.4149C107.113 64.5205 107.339 64.5843 107.571 64.6025L107.809 64.6254L108.015 62.6263C108.093 61.8485 107.775 61.4229 107.06 61.3497C106.927 61.3279 106.791 61.3399 106.663 61.3845C106.536 61.4291 106.422 61.505 106.332 61.6051C106.126 61.8649 106.008 62.1832 105.996 62.514Z" fill="#E9145A"/>
<path d="M104.046 67.4237L111.693 69.5964L111.154 71.4705L110.177 71.1922V71.2075C110.458 71.6401 110.638 72.1295 110.704 72.6402C110.77 73.1508 110.72 73.6697 110.559 74.1589C110.321 74.9913 109.862 75.5402 109.187 75.8032C108.43 76.0675 107.606 76.0738 106.845 75.821L102.043 74.4551L102.628 72.4126L107.309 73.7428C108.257 74.01 108.848 73.7326 109.084 72.9104C109.164 72.6792 109.192 72.4334 109.166 72.1903C109.14 71.9472 109.06 71.7128 108.933 71.5036C108.646 71.0802 108.209 70.7802 107.709 70.6637L103.474 69.4611L104.046 67.4237Z" fill="#E9145A"/>
<path d="M100.132 78.9742L109.577 84.8464L108.363 86.7792L104.544 84.4047L102.171 88.1885L105.991 90.5629L104.777 92.4957L95.3323 86.6234L96.5456 84.6907L100.511 87.1545L102.884 83.3733L98.9184 80.9069L100.132 78.9742Z" fill="#E9145A"/>
<path d="M92.4877 89.4446C92.745 89.1431 93.0685 88.9045 93.4332 88.7473C93.798 88.5902 94.1942 88.5186 94.5911 88.5383C95.3761 88.5842 96.1319 88.9485 96.8588 89.631L100.35 92.9118L98.8827 94.4437L95.4607 91.2267C94.6689 90.4812 93.9447 90.4531 93.288 91.1425C93.1184 91.3003 92.9881 91.4954 92.9075 91.7121C92.8269 91.9288 92.7982 92.1613 92.8237 92.391C92.9144 92.8893 93.1765 93.3406 93.5651 93.6676L96.7664 96.6777L95.2991 98.2224L89.5249 92.7995L90.8691 91.3825L91.6104 92.0769C91.543 91.6006 91.5871 91.1151 91.7393 90.6585C91.8915 90.2019 92.1476 89.7865 92.4877 89.4446Z" fill="#E9145A"/>
<path d="M88.4398 93.6216L93.347 99.8488L91.8079 101.051L91.0897 100.137H91.0768C91.0776 100.661 90.9575 101.178 90.7258 101.649C90.4941 102.12 90.157 102.531 89.7404 102.851L88.5142 101.294C89.2299 100.735 89.6557 100.211 89.7968 99.7288C89.9379 99.2462 89.7814 98.7356 89.3582 98.1969L86.7673 94.9263L88.4398 93.6216Z" fill="#E9145A"/>
<path d="M81.188 98.4879C81.643 98.1998 82.1518 98.0061 82.6838 97.9183C83.2158 97.8306 83.7601 97.8506 84.2842 97.9773C85.3103 98.2428 86.1388 98.9237 86.7699 100.02C87.4009 101.116 87.583 102.169 87.3162 103.178C87.1718 103.69 86.9239 104.167 86.5878 104.58C86.2517 104.993 85.8345 105.334 85.3616 105.581C84.2773 106.204 83.2376 106.37 82.2423 106.078C81.7601 105.942 81.3096 105.712 80.917 105.402C80.5243 105.092 80.1971 104.707 79.9542 104.271L79.4411 103.38L84.5381 100.449C83.8883 99.567 83.0632 99.4139 82.0627 99.9892C81.2932 100.436 80.9572 100.98 81.0803 101.616L79.1974 102.698C78.9959 101.924 79.0806 101.104 79.436 100.387C79.7986 99.5826 80.4133 98.9162 81.188 98.4879ZM85.3385 101.84L82.1192 103.691C82.7502 104.5 83.5394 104.629 84.4868 104.079C84.8989 103.866 85.2223 103.516 85.4 103.089C85.4761 102.887 85.5098 102.673 85.4992 102.458C85.4886 102.243 85.4339 102.033 85.3385 101.84Z" fill="#E9145A"/>
<path d="M76.8322 100.875L81.111 111.108L79.146 111.923L74.8699 101.69L76.8322 100.875Z" fill="#E9145A"/>
<path d="M71.1324 107.118L71.5044 108.864L66.1816 109.992L65.8071 108.254L71.1324 107.118Z" fill="#E9145A"/>
<path d="M60.2998 104.919L60.0587 116L52.4119 115.837L52.4529 113.873L57.8398 113.988L57.8911 111.609L54.0177 111.527L54.0587 109.602L57.9321 109.683L58.0373 104.871L60.2998 104.919Z" fill="#E9145A"/>
<path d="M52.1782 104.536L50.616 115.515L48.51 115.219L50.0722 104.24L52.1782 104.536Z" fill="#E9145A"/>
<path d="M42.0868 103.27C42.9726 102.759 44.0175 102.674 45.2214 103.015C46.4254 103.355 47.2753 103.97 47.7712 104.858C48.2672 105.753 48.3424 106.817 47.997 108.049C47.6532 109.28 47.0402 110.153 46.15 110.666C45.2599 111.18 44.2185 111.272 43.0128 110.94C41.8072 110.608 40.9607 109.995 40.463 109.104C39.9654 108.213 39.891 107.146 40.2373 105.905C40.5836 104.664 41.1992 103.778 42.0868 103.27ZM45.9166 105.675C45.8042 105.437 45.6416 105.227 45.44 105.057C45.2383 104.888 45.0023 104.764 44.7481 104.694C44.4939 104.624 44.2274 104.609 43.9669 104.65C43.7064 104.692 43.458 104.789 43.2386 104.935C42.7766 105.335 42.4556 105.872 42.3228 106.467C42.1273 107.046 42.1273 107.674 42.3228 108.254C42.4306 108.493 42.5902 108.707 42.7903 108.878C42.9903 109.049 43.2258 109.175 43.48 109.245C43.7342 109.316 44.0009 109.329 44.2611 109.286C44.5213 109.242 44.7686 109.141 44.9854 108.992C45.4259 108.573 45.7448 108.043 45.9087 107.459C46.0725 106.875 46.0753 106.258 45.9166 105.673V105.675Z" fill="#E9145A"/>
<path d="M40.4529 101.616L37.1952 108.844L35.3995 108.047L35.8767 106.99H35.8613C35.3959 107.235 34.8803 107.37 34.3541 107.385C33.828 107.4 33.3054 107.294 32.8267 107.077L33.6398 105.272C34.4735 105.642 35.1328 105.782 35.6253 105.665C36.1178 105.547 36.5026 105.19 36.7847 104.564L38.4957 100.763L40.4529 101.616Z" fill="#E9145A"/>
<path d="M31.2233 107.304L30.2306 109.053L28.1785 107.901L29.1712 106.152L31.2233 107.304ZM35.6124 99.3483L31.7005 106.242L29.8484 105.19L33.7603 98.2964L35.6124 99.3483Z" fill="#E9145A"/>
<path d="M30.7155 96.1492C31.3286 96.5595 31.7814 97.1671 31.998 97.8701C32.084 98.1924 32.0916 98.5305 32.0202 98.8564C31.9488 99.1823 31.8005 99.4866 31.5876 99.7441C31.3958 100.031 31.1396 100.27 30.8391 100.442C30.5386 100.614 30.2021 100.714 29.8561 100.735C29.1635 100.772 28.394 100.484 27.5475 99.8692L25.9083 98.6488L25.6723 98.9654C25.1182 99.7109 25.2149 100.361 25.9622 100.916C26.6035 101.389 27.2131 101.382 27.7912 100.896L29.4611 102.121C28.9047 102.671 28.1567 102.985 27.373 102.999C26.5091 102.999 25.6711 102.706 24.9977 102.167C24.0588 101.486 23.5236 100.75 23.3919 99.9586C23.328 99.5656 23.3472 99.1637 23.4484 98.7786C23.5495 98.3934 23.7304 98.0336 23.9793 97.722L25.9801 95.0233C26.3345 94.5563 26.6316 94.0489 26.8651 93.5118L28.3093 94.574C28.1701 94.896 27.9927 95.2002 27.7809 95.4803C28.2893 95.3694 28.8161 95.3719 29.3235 95.4875C29.8308 95.6032 30.3062 95.8291 30.7155 96.1492ZM29.4534 97.0863C29.2534 96.9176 29.0204 96.7921 28.7692 96.7178C28.5179 96.6435 28.2539 96.6221 27.9938 96.6548C27.7643 96.6924 27.5447 96.7752 27.3478 96.8984C27.1509 97.0216 26.9807 97.1827 26.8472 97.3722L26.7035 97.5663L28.3298 98.7586C28.9626 99.2232 29.4902 99.1662 29.9126 98.5875C30.0002 98.4827 30.0594 98.3572 30.0845 98.2231C30.1097 98.0891 30.0999 97.9508 30.0562 97.8216C29.9366 97.5203 29.7259 97.2634 29.4534 97.0863Z" fill="#E9145A"/>
<path d="M26.2008 92.9169L20.4394 98.373L19.0927 96.9637L19.8289 96.2539C19.3123 96.2727 18.798 96.1768 18.3233 95.9733C17.8486 95.7697 17.4253 95.4635 17.0842 95.0769C16.4839 94.4488 16.2411 93.7782 16.3557 93.065C16.5098 92.2809 16.9234 91.5708 17.5305 91.048L21.1474 87.6217L22.6198 89.1536L19.0825 92.5008C18.3693 93.1816 18.3086 93.8293 18.9003 94.4437C19.0586 94.6282 19.2553 94.7763 19.4768 94.8777C19.6982 94.9791 19.9392 95.0314 20.1829 95.031C20.7009 95.0016 21.1885 94.7781 21.5476 94.4054L24.7361 91.3825L26.2008 92.9169Z" fill="#E9145A"/>
<path d="M18.1743 83.7026L8.30858 88.8498L7.24659 86.8302L11.2354 84.7494L9.15765 80.7997L5.1688 82.8779L4.10425 80.8507L13.9725 75.7112L15.0345 77.7308L10.8917 79.8882L12.9695 83.8405L17.1123 81.6805L18.1743 83.7026Z" fill="#E9145A"/>
<path d="M12.9721 71.8381C13.1018 72.2124 13.1439 72.6113 13.095 73.0042C13.0461 73.3972 12.9075 73.7738 12.6899 74.1053C12.1794 74.8027 11.4351 75.2953 10.5916 75.4942L5.97426 76.8219L5.37914 74.7793L9.89898 73.4747C10.949 73.1734 11.3415 72.5675 11.0764 71.6568C11.0244 71.433 10.9209 71.2242 10.774 71.047C10.6271 70.8698 10.4408 70.7289 10.2299 70.6356C9.75307 70.4599 9.22959 70.4554 8.74978 70.6228L4.52237 71.8407L3.92725 69.7981L11.5664 67.5948L12.1102 69.4662L11.1328 69.7471V69.7624C11.5787 69.9451 11.9764 70.2272 12.2952 70.5871C12.6141 70.947 12.8457 71.375 12.9721 71.8381Z" fill="#E9145A"/>
<path d="M11.4125 66.2518L3.52968 67.2884L3.27317 65.3582L4.4275 65.2076V65.1922C3.97449 64.9261 3.58885 64.56 3.30024 64.1223C3.01163 63.6845 2.82773 63.1867 2.7627 62.6672L4.73275 62.4119C4.85075 63.3106 5.08675 63.9438 5.43818 64.2986C5.78961 64.6535 6.30521 64.794 6.97729 64.7046L11.1277 64.1582L11.4125 66.2518Z" fill="#E9145A"/>
<path d="M10.8917 57.5609C10.9067 58.0964 10.8131 58.6295 10.6166 59.1282C10.42 59.627 10.1245 60.0812 9.74767 60.4638C8.9935 61.1991 7.98026 61.5566 6.70793 61.5361C5.42534 61.5157 4.43261 61.1276 3.70667 60.377C3.34056 59.9904 3.05738 59.5336 2.87436 59.0345C2.69134 58.5354 2.61232 58.0045 2.64212 57.4741C2.66264 56.2247 3.05426 55.2511 3.81697 54.5533C4.18261 54.212 4.61245 53.9461 5.08174 53.7708C5.55104 53.5956 6.05052 53.5144 6.55145 53.532L7.57752 53.5473L7.48261 59.4196C8.57794 59.3174 9.13459 58.6945 9.15254 57.543C9.16794 56.6468 8.86781 56.0903 8.25473 55.8681L8.29064 53.7031C9.05999 53.9302 9.72235 54.4238 10.1581 55.0945C10.6631 55.8166 10.9204 56.6816 10.8917 57.5609ZM5.86911 59.3813L5.92811 55.6792C4.90204 55.8017 4.38473 56.4094 4.37618 57.5021C4.34959 57.963 4.48469 58.4188 4.75839 58.7915C4.89447 58.9588 5.06289 59.0971 5.25368 59.1985C5.44447 59.2998 5.65375 59.3619 5.86911 59.3813Z" fill="#E9145A"/>
<path d="M11.0303 52.6103L0 51.0988L0.289865 49.0001L11.3201 50.5142L11.0303 52.6103Z" fill="#E9145A"/>
<path d="M8.50882 44.5602L6.80811 43.996L8.52421 38.8539L10.2275 39.4181L8.50882 44.5602Z" fill="#E9145A"/>
<path d="M41.2558 55.5337C41.2883 55.6205 41.1934 55.6894 40.9711 55.7405C40.6891 55.7969 40.4018 55.8226 40.1143 55.8171C39.6091 55.8099 39.1071 55.736 38.6214 55.5975C38.1134 55.4716 37.6512 55.2062 37.2875 54.8315C37.1085 54.5118 36.9525 54.18 36.8206 53.8384C36.6982 53.5117 36.6365 53.1657 36.6385 52.8171C36.6634 52.1954 36.7677 51.5794 36.9489 50.9839C37.2849 49.7854 37.9503 48.7041 38.8702 47.8614C39.8896 46.9243 41.0481 46.1492 42.305 45.5636C43.7264 44.8888 45.2066 44.3445 46.7273 43.9372C48.3366 43.4981 49.9714 43.1321 51.632 42.8394C53.2925 42.5466 54.9171 42.31 56.5058 42.1296C58.0962 41.9492 59.5498 41.79 60.8666 41.6522C62.0261 41.5313 63.0385 41.4147 63.9038 41.3024C64.6285 41.2238 65.3419 41.0636 66.0303 40.8249C66.1026 41.1251 66.1157 41.4364 66.0688 41.7415C66.0213 42.1153 65.9354 42.4831 65.8123 42.8394C65.7072 43.167 65.5679 43.4828 65.3967 43.7815C65.2402 44.0496 65.094 44.2002 64.9555 44.2334L61.4797 44.5168C59.9594 44.6547 58.4203 44.7968 56.8624 44.9432C55.3044 45.0896 53.7397 45.2836 52.1681 45.5253C52.3613 45.6471 52.5472 45.7801 52.7247 45.9236C52.9 46.0634 53.0569 46.2246 53.1916 46.4036C53.3174 46.5665 53.4146 46.7495 53.4789 46.9448C53.5416 47.1286 53.5416 47.3279 53.4789 47.5116C52.8838 48.3848 52.2895 49.3133 51.6961 50.2971C51.1027 51.281 50.5187 52.3141 49.9441 53.3967C50.688 53.2401 51.4319 53.1065 52.1758 52.9958L54.4588 52.6486C55.1155 52.5439 55.8081 52.4418 56.534 52.3371C57.26 52.2324 57.9603 52.115 58.6349 51.9771C58.7375 52.0103 58.7503 52.1533 58.6734 52.4035C58.5806 52.688 58.463 52.964 58.3219 53.2282C58.1756 53.5183 58.004 53.7952 57.8089 54.0554C57.6191 54.3107 57.4729 54.4384 57.3677 54.4537C57.0907 54.4894 56.8111 54.5098 56.5263 54.5201C56.2416 54.5303 55.9517 54.5405 55.6567 54.5584C54.6306 54.6281 53.5456 54.7184 52.4015 54.829C51.2201 54.9453 50.0466 55.1311 48.8872 55.3856C48.263 56.6247 47.6705 57.8723 47.1095 59.1285C46.5486 60.3846 46.0476 61.5983 45.6063 62.7693C45.1651 63.9386 44.7975 65.0569 44.5033 66.1241C44.2355 67.0636 44.0358 68.0209 43.9056 68.9888C43.8954 68.7394 43.8055 68.4997 43.6491 68.3045C43.4625 68.0155 43.2449 67.7476 43.0001 67.5054C42.7892 67.2853 42.5493 67.0947 42.287 66.9386C42.0638 66.8084 41.9253 66.8135 41.874 66.9386C41.9191 66.2031 42.0272 65.4728 42.1972 64.7557C42.3785 63.9574 42.6119 63.1063 42.8975 62.2025C43.1831 61.2987 43.5114 60.3736 43.8825 59.4272C44.2536 58.4723 44.6555 57.5047 45.0882 56.5243C44.2986 56.8475 43.5397 57.2406 42.8206 57.6987C42.1023 58.1541 41.4365 58.6866 40.8351 59.2868C40.6913 59.4556 40.5569 59.632 40.4324 59.8153C40.278 60.044 40.1441 60.2858 40.0322 60.5378C39.9029 60.8256 39.7982 61.1236 39.7193 61.4289C39.6338 61.7487 39.5907 62.0783 39.591 62.4093C39.5884 62.7069 39.6316 63.0031 39.7193 63.2876C39.8025 63.556 39.9444 63.8028 40.1348 64.0101H40.2118C40.2277 64.04 40.2359 64.0733 40.2356 64.1071C40.2352 64.1409 40.2263 64.1741 40.2097 64.2036C40.1931 64.233 40.1693 64.2579 40.1405 64.2759C40.1118 64.2938 40.0789 64.3043 40.045 64.3063C39.8476 64.349 39.6428 64.3446 39.4473 64.2935C39.2034 64.2468 38.9646 64.1767 38.7342 64.0842C38.5336 64.0074 38.3492 63.8939 38.1904 63.7497C37.9528 63.367 37.8349 62.9227 37.8518 62.4731C37.8553 62.0885 37.9123 61.7061 38.0211 61.337C38.1351 60.9381 38.2827 60.5495 38.4623 60.1753C38.6351 59.8134 38.834 59.4644 39.0574 59.1311C39.2445 58.849 39.4575 58.5849 39.6936 58.3421H39.668C40.5523 57.4189 41.5554 56.6162 42.6513 55.9549C43.7155 55.3238 44.8457 54.8101 46.0219 54.423C46.7829 52.7703 47.5525 51.2001 48.3306 49.7125C49.1087 48.2248 49.8004 46.921 50.4058 45.801C49.8363 45.9032 49.2703 46.0146 48.7076 46.1355C48.1459 46.258 47.5867 46.3908 47.0351 46.5236C46.2489 46.7608 45.4779 47.0456 44.7265 47.3763C43.8466 47.7533 43.0041 48.2114 42.21 48.7448C41.4586 49.2405 40.7779 49.8348 40.1861 50.5116C39.6692 51.0693 39.3746 51.7956 39.3576 52.5541C39.3642 53.079 39.5017 53.594 39.7577 54.0528C40.1071 54.6378 40.5808 55.1397 41.1455 55.5234L41.2558 55.5337Z" fill="#E9145A"/>
<path d="M72.3817 71.6466C71.7926 72.4387 71.1443 73.1855 70.4424 73.8806C69.7504 74.5741 68.9859 75.1921 68.162 75.724C67.4453 76.209 66.6019 76.4752 65.7353 76.4899C65.2718 76.4924 64.8109 76.42 64.3707 76.2755C63.9492 76.1376 63.5588 75.919 63.2215 75.6321C62.8738 75.3301 62.603 74.9504 62.4314 74.524C62.2274 74.0125 62.1398 73.4623 62.1749 72.913C62.201 72.3103 62.2869 71.7116 62.4314 71.1258C62.5896 70.4789 62.7814 69.8406 63.006 69.2135C63.2454 68.5326 63.5267 67.7871 63.8499 66.9769C64.1732 66.1667 64.5502 65.2612 64.9812 64.2603C65.1744 63.7838 65.336 63.3369 65.466 62.9199C65.5906 62.5544 65.6589 62.1722 65.6687 61.7863C65.6687 61.5463 65.5199 61.4697 65.2197 61.554C64.9196 61.6382 64.4245 61.988 63.7294 62.6084C62.9197 63.292 62.149 64.0199 61.4207 64.7888C60.7247 65.5293 60.0176 66.3514 59.2993 67.2552C58.6852 68.6806 58.1567 70.141 57.7166 71.6287C57.269 73.1318 56.9861 74.6787 56.8727 76.2423C56.8496 76.4568 56.6572 76.5385 56.298 76.4976C55.9009 76.4387 55.514 76.3244 55.1488 76.158C54.7425 75.9804 54.3571 75.7586 53.9996 75.4968C53.638 75.2415 53.4481 74.9861 53.425 74.7461C53.5026 73.4595 53.7071 72.1836 54.0356 70.9368C54.3839 69.6011 54.8122 68.2873 55.3181 67.0024C55.8312 65.6799 56.4118 64.3514 57.0599 63.017C57.708 61.6825 58.3545 60.3591 58.9992 59.0468L60.0253 56.9353C60.817 55.3132 61.5601 53.6801 62.2544 52.0358C62.8614 50.629 63.3756 49.1843 63.7935 47.7108C64.1785 47.5615 64.6034 47.5489 64.9966 47.675C65.4949 47.7964 65.9686 48.0019 66.3972 48.2827C66.8269 48.5545 67.1997 48.9065 67.4951 49.3193C67.6309 49.4875 67.7249 49.6852 67.7695 49.8964C67.8141 50.1075 67.8079 50.3262 67.7516 50.5346C67.631 50.8435 67.4284 51.3005 67.1411 51.8929L66.1689 53.8945C65.8097 54.6349 65.4267 55.4103 65.0197 56.2205C64.6127 57.0307 64.2176 57.8051 63.8345 58.5438L62.2954 61.4417L62.1877 61.6204C63.0454 60.8039 63.9948 60.0886 65.0171 59.4885C65.9795 58.9189 67.0629 58.5822 68.18 58.5055C68.5132 58.5204 68.836 58.6255 69.1137 58.8094C69.4516 59.0172 69.7597 59.2697 70.0295 59.56C70.2918 59.8414 70.5098 60.1607 70.6759 60.5072C70.8243 60.7813 70.8689 61.0993 70.8016 61.4034C70.3946 62.4995 69.9816 63.5301 69.5626 64.4952C69.1436 65.4603 68.7785 66.2884 68.4673 66.9794C68.2022 67.6007 67.9568 68.1735 67.7311 68.6977C67.5053 69.222 67.301 69.7403 67.118 70.2526C66.9365 70.7719 66.7925 71.3035 66.687 71.8432C66.5728 72.4457 66.4948 73.0544 66.4536 73.6662C66.4431 73.7287 66.4457 73.7927 66.4611 73.8542C66.4766 73.9157 66.5046 73.9733 66.5434 74.0236C66.628 74.1436 66.7999 74.1666 67.0564 74.0951C67.9027 73.6271 68.6876 73.0568 69.3933 72.3972C70.4795 71.396 71.4329 70.2609 72.2304 69.0194C72.687 68.3505 73.1145 67.6696 73.513 66.9769L74.0901 65.9761C74.1371 65.9116 74.1994 65.8599 74.2716 65.8256C74.3437 65.7912 74.4233 65.7754 74.5031 65.7795C74.7047 65.7682 74.9065 65.7986 75.0957 65.8688C75.2695 65.931 75.4285 66.0284 75.5626 66.1548C75.6197 66.2098 75.6549 66.2836 75.6615 66.3625C75.6681 66.4414 75.6457 66.52 75.5985 66.5837L73.7464 69.7011C73.4129 70.2237 72.958 70.8722 72.3817 71.6466Z" fill="#E9145A"/>
</svg>
