<svg width="37" height="37" viewBox="0 0 37 37" fill="none" xmlns="http://www.w3.org/2000/svg">
<circle cx="18.4283" cy="18.2857" r="17.9345" stroke="#FBFFFE" stroke-width="0.702381"/>
<path d="M28.0362 12.7617C27.3175 13.0967 26.5428 13.3169 25.7402 13.4221C26.5615 12.9149 27.1962 12.1109 27.4948 11.1442C26.7202 11.6227 25.8615 11.9577 24.9562 12.1492C24.2188 11.326 23.1828 10.8475 22.0068 10.8475C19.8135 10.8475 18.0215 12.6852 18.0215 14.9536C18.0215 15.279 18.0588 15.5948 18.1241 15.8915C14.8014 15.7193 11.8428 14.0826 9.87342 11.6036C9.52808 12.2066 9.33208 12.9149 9.33208 13.6614C9.33208 15.0876 10.0321 16.351 11.1148 17.0688C10.4521 17.0688 9.83608 16.8774 9.29475 16.5902V16.619C9.29475 18.6098 10.6761 20.2752 12.5054 20.6485C11.9181 20.8133 11.3015 20.8362 10.7041 20.7155C10.9576 21.5314 11.4541 22.2454 12.1237 22.757C12.7934 23.2686 13.6025 23.5521 14.4374 23.5677C13.0222 24.7167 11.2678 25.3377 9.46275 25.3288C9.14541 25.3288 8.82808 25.3097 8.51074 25.2714C10.2841 26.4391 12.3934 27.1187 14.6521 27.1187C22.0068 27.1187 26.0482 20.859 26.0482 15.4321C26.0482 15.2503 26.0482 15.078 26.0388 14.8961C26.8228 14.3218 27.4948 13.5944 28.0362 12.7617Z" fill="#FBFFFE"/>
</svg>
