<svg width="221" height="46" viewBox="0 0 221 46" fill="none" xmlns="http://www.w3.org/2000/svg">
<path d="M5.749 44.0375C5.5015 44.2535 5.19977 44.352 4.89867 44.3152H2.09906C1.79811 44.3498 1.49697 44.2515 1.24874 44.0375C1.15137 43.886 1.07924 43.7119 1.03656 43.5254C0.993876 43.339 0.981484 43.1438 1.0001 42.9514V2.22183C0.965217 1.83717 1.05463 1.45104 1.24874 1.14805C1.49697 0.934069 1.79811 0.835722 2.09906 0.870346H21.1543C21.4554 0.833537 21.7571 0.93208 22.0046 1.14805C22.1041 1.29823 22.1779 1.47199 22.2215 1.65872C22.2651 1.84545 22.2776 2.04125 22.2582 2.23417V5.39997C22.2776 5.59289 22.2651 5.78869 22.2215 5.97542C22.1779 6.16215 22.1041 6.3359 22.0046 6.48609C21.7571 6.70206 21.4554 6.8006 21.1543 6.76379H6.59932C6.43197 6.74215 6.26401 6.797 6.12692 6.91807C6.03185 7.06844 5.9873 7.2586 6.0026 7.44879V19.7479C5.98623 19.9382 6.03089 20.1288 6.12692 20.2786C6.26297 20.4024 6.4318 20.4575 6.59932 20.4329H19.399C19.7196 20.3905 20.0413 20.5008 20.299 20.7414C20.496 21.0595 20.5869 21.4595 20.5526 21.8584V24.944C20.5683 25.1319 20.554 25.3219 20.5104 25.5029C20.4669 25.684 20.3951 25.8527 20.299 25.9993C20.0432 26.2449 19.7205 26.3578 19.399 26.314H6.59932C6.4318 26.2893 6.26297 26.3445 6.12692 26.4683C6.03167 26.6161 5.98703 26.8045 6.0026 26.9928V42.9514C6.02197 43.1443 6.00947 43.3401 5.96587 43.5268C5.92226 43.7136 5.84848 43.8873 5.749 44.0375Z" fill="black"/>
<path d="M33.6356 38.261C33.7789 38.3908 33.9573 38.4461 34.1329 38.4152H48.8619C49.163 38.3784 49.4647 38.477 49.7122 38.693C49.8106 38.8438 49.8833 39.0178 49.9261 39.2045C49.9688 39.3911 49.9806 39.5866 49.9609 39.7791V42.951C49.9806 43.1435 49.9688 43.339 49.9261 43.5257C49.8833 43.7123 49.8106 43.8863 49.7122 44.0372C49.4647 44.2531 49.163 44.3517 48.8619 44.3149H29.6078C29.3067 44.3517 29.0049 44.2531 28.7574 44.0372C28.6591 43.8863 28.5863 43.7123 28.5436 43.5257C28.5009 43.339 28.489 43.1435 28.5088 42.951V2.22147C28.489 2.02898 28.5009 1.83352 28.5436 1.64686C28.5863 1.4602 28.6591 1.2862 28.7574 1.13535C29.0049 0.919384 29.3067 0.820842 29.6078 0.857651H32.4074C32.7085 0.820842 33.0102 0.919384 33.2577 1.13535C33.356 1.2862 33.4288 1.4602 33.4715 1.64686C33.5142 1.83352 33.5261 2.02898 33.5063 2.22147V37.7364C33.4932 37.9254 33.5395 38.1134 33.6356 38.261Z" fill="black"/>
<path d="M87.7728 11.1082C86.2415 7.75839 84.0076 4.98601 81.3083 3.08572C78.7814 1.31164 75.9455 0.324833 73.0437 0.209961V6.12809C74.9908 6.27866 76.8833 6.98622 78.5733 8.19542C80.5262 9.58493 82.1343 11.6127 83.2228 14.058C84.3785 16.6708 84.9647 19.6126 84.9234 22.5927C84.9561 25.546 84.3609 28.4579 83.1979 31.0348C82.0928 33.503 80.4687 35.5527 78.4988 36.9653C76.8273 38.1697 74.9566 38.8852 73.0288 39.0573V44.9631C75.8989 44.8168 78.7004 43.8292 81.2039 42.0812C83.9335 40.1839 86.1917 37.3943 87.733 34.0155C89.3278 30.5148 90.1462 26.5521 90.1049 22.531C90.1564 18.5343 89.3516 14.5923 87.7728 11.1082ZM56.3853 11.2687C54.792 14.779 53.9738 18.7492 54.0134 22.7778C53.9703 26.7561 54.7803 30.6771 56.3605 34.1389C57.8797 37.4727 60.1026 40.2293 62.7901 42.112C65.3341 43.898 68.1925 44.8813 71.1143 44.9755V39.0758C69.1352 38.9564 67.2074 38.2541 65.4903 37.027C63.5505 35.6342 61.9587 33.6032 60.8905 31.1583C59.7577 28.5803 59.1804 25.683 59.2148 22.747C59.1749 19.7573 59.7609 16.8059 60.9154 14.1814C61.9302 11.8806 63.3974 9.93569 65.1806 8.52764C66.9638 7.11958 69.005 6.29414 71.1143 6.12809V0.216132C68.2299 0.355354 65.4152 1.3567 62.9094 3.13508C60.1812 5.06284 57.9262 7.87413 56.3853 11.2687Z" fill="black"/>
<path d="M101.577 44.0372C101.329 44.2511 101.028 44.3495 100.727 44.3149H97.9272C97.6261 44.3517 97.3244 44.2531 97.0769 44.0372C96.9774 43.887 96.9036 43.7132 96.86 43.5265C96.8164 43.3398 96.8039 43.144 96.8233 42.951V2.22147C96.8039 2.02855 96.8164 1.83276 96.86 1.64602C96.9036 1.45929 96.9774 1.28554 97.0769 1.13535C97.3244 0.919384 97.6261 0.820842 97.9272 0.857651H107.48C116.984 0.857651 121.735 5.34613 121.731 14.3231C121.731 17.3017 121.131 19.7537 119.931 21.6791C118.641 23.6782 116.899 25.1543 114.929 25.9187L124.526 44.1976L120.264 44.2902H118.365L108.479 24.5178C108.309 24.2735 108.205 23.9692 108.181 23.6477C108.181 23.3145 108.429 23.1293 108.927 23.0923C113.962 22.4258 116.48 19.6323 116.48 14.7119C116.48 11.8978 115.688 9.84078 114.103 8.54073C112.519 7.24067 110.226 6.58859 107.226 6.58448H102.442C102.267 6.55679 102.089 6.61185 101.945 6.73875C101.843 6.91787 101.799 7.1381 101.821 7.35587V42.951C101.84 43.1431 101.829 43.338 101.787 43.5244C101.745 43.7108 101.674 43.8851 101.577 44.0372Z" fill="black"/>
<path d="M133.337 44.0374C133.089 44.2514 132.788 44.3497 132.487 44.3151H129.683C129.382 44.3497 129.08 44.2514 128.832 44.0374C128.735 43.8858 128.663 43.7118 128.62 43.5253C128.577 43.3388 128.565 43.1437 128.584 42.9513V2.2217C128.565 2.02925 128.577 1.83412 128.62 1.64766C128.663 1.4612 128.735 1.28714 128.832 1.13558C129.08 0.921597 129.382 0.82325 129.683 0.857875H132.487C132.788 0.82325 133.089 0.921597 133.337 1.13558C133.435 1.28714 133.507 1.4612 133.55 1.64766C133.592 1.83412 133.605 2.02925 133.586 2.2217V42.9513C133.605 43.1437 133.592 43.3388 133.55 43.5253C133.507 43.7118 133.435 43.8858 133.337 44.0374Z" fill="black"/>
<path d="M142.781 44.315H138.937L137.544 44.278L138.186 42.4266L155.192 0L173.054 44.315H167.152L166.654 42.4637L155.093 11.5462L142.781 44.315Z" fill="black"/>
<path d="M200.503 1.14785C200.751 0.93188 201.052 0.833337 201.353 0.870147H204.153C204.454 0.833337 204.756 0.93188 205.003 1.14785C205.103 1.29803 205.177 1.47179 205.22 1.65852C205.264 1.84525 205.276 2.04105 205.257 2.23397V42.9635C205.257 44.3274 204.919 45.0124 204.262 45.0124C203.952 44.9918 203.655 44.8516 203.412 44.6112C202.957 44.1543 202.539 43.6438 202.164 43.087L181.846 13.342V42.9635C181.865 43.156 181.854 43.3515 181.811 43.5382C181.768 43.7248 181.695 43.8988 181.597 44.0497C181.35 44.2656 181.048 44.3642 180.747 44.3274H177.947C177.646 44.3642 177.344 44.2656 177.097 44.0497C176.998 43.8988 176.926 43.7248 176.883 43.5382C176.84 43.3515 176.828 43.156 176.848 42.9635V2.23397C176.817 1.69924 176.902 1.16389 177.097 0.685012C177.181 0.519405 177.3 0.385398 177.441 0.297344C177.582 0.20929 177.74 0.170507 177.897 0.185149C178.208 0.2075 178.505 0.349915 178.748 0.592445C179.194 1.03863 179.596 1.54814 179.946 2.11055L200.254 31.8431V2.22163C200.236 2.03111 200.249 1.83796 200.291 1.65354C200.334 1.46913 200.406 1.29719 200.503 1.14785Z" fill="black"/>
<path d="M6.0025 39.3286H1V44.3211H6.0025V39.3286Z" fill="black"/>
<path d="M20.5577 20.4204H15.3115V26.3139H20.5577V20.4204Z" fill="black"/>
<path d="M22.2583 0.870117H15.3115V6.76356H22.2583V0.870117Z" fill="black"/>
<path d="M33.5113 0.870117H28.5088V6.76356H33.5113V0.870117Z" fill="black"/>
<path d="M33.5113 38.4214H28.5088V44.3148H33.5113V38.4214Z" fill="black"/>
<path d="M49.9659 38.4214H44.9634V44.3148H49.9659V38.4214Z" fill="black"/>
<path d="M101.826 0.870117H96.8232V6.76356H101.826V0.870117Z" fill="black"/>
<path d="M133.586 0.870117H128.583V6.76356H133.586V0.870117Z" fill="black"/>
<path d="M133.586 38.4399H128.583V44.3334H133.586V38.4399Z" fill="black"/>
<path d="M101.826 38.4214H96.8232V44.3148H101.826V38.4214Z" fill="black"/>
<path d="M181.851 38.4214H176.848V44.3148H181.851V38.4214Z" fill="black"/>
<path d="M205.257 0.870117H200.255V6.76356H205.257V0.870117Z" fill="black"/>
<path d="M119.836 35.401L115.73 38.7266L118.326 43.6619L122.432 40.3364L119.836 35.401Z" fill="black"/>
<path d="M7.94681 0.870117H1V6.76356H7.94681V0.870117Z" fill="black"/>
</svg>
