<svg width="201" height="54" viewBox="0 0 201 54" fill="none" xmlns="http://www.w3.org/2000/svg">
<path d="M50.8501 52.3048C50.5595 52.5583 50.2053 52.674 49.8519 52.6308H46.5654C46.212 52.6727 45.8581 52.5571 45.5672 52.3048C45.4517 52.1277 45.3663 51.9235 45.3162 51.7043C45.266 51.4852 45.2521 51.2557 45.2753 51.0298V30.702C45.2909 30.479 45.2388 30.2569 45.1294 30.079C44.9599 29.93 44.7516 29.8654 44.5456 29.8979H25.136C24.93 29.8654 24.7217 29.93 24.5523 30.079C24.4428 30.2569 24.3907 30.479 24.4063 30.702V51.0298C24.4282 51.2557 24.4136 51.4848 24.3635 51.7037C24.3134 51.9225 24.2288 52.1269 24.1144 52.3048C23.823 52.556 23.4695 52.6714 23.1162 52.6308H19.8297C19.4763 52.674 19.1221 52.5583 18.8315 52.3048C18.7147 52.1285 18.6281 51.9245 18.577 51.7053C18.5258 51.4861 18.5111 51.2563 18.5338 51.0298V3.21681C18.5111 2.99034 18.5258 2.76049 18.577 2.54128C18.6281 2.32208 18.7147 2.1181 18.8315 1.9418C19.1221 1.68827 19.4763 1.57259 19.8297 1.6158H23.1629C23.5162 1.57515 23.8697 1.69061 24.1611 1.9418C24.2754 2.11972 24.3601 2.32406 24.4102 2.54294C24.4603 2.76183 24.4749 2.99089 24.453 3.21681V22.1754C24.4411 22.4092 24.4924 22.6412 24.599 22.8346C24.6772 22.9222 24.7702 22.9871 24.8712 23.0247C24.9721 23.0623 25.0785 23.0716 25.1827 23.0519H44.6157C44.7199 23.0716 44.8263 23.0623 44.9272 23.0247C45.0282 22.9871 45.1211 22.9222 45.1994 22.8346C45.3059 22.6412 45.3573 22.4092 45.3453 22.1754V3.2313C45.3221 3.00533 45.336 2.77587 45.3862 2.55675C45.4364 2.33763 45.5218 2.13337 45.6372 1.95629C45.9282 1.70394 46.282 1.58837 46.6354 1.63029H49.9219C50.2754 1.58708 50.6296 1.70276 50.9201 1.95629C51.0369 2.13259 51.1235 2.33656 51.1747 2.55577C51.2259 2.77498 51.2406 3.00483 51.2178 3.2313V51.0443C51.2295 51.2745 51.2029 51.5051 51.1396 51.722C51.0763 51.9389 50.9778 52.1372 50.8501 52.3048Z" fill="black"/>
<path d="M94.7655 1.9563C94.4544 1.69878 94.0809 1.58353 93.7089 1.63031H90.4224C90.0876 1.59302 89.7533 1.70897 89.4826 1.9563C89.3671 2.13339 89.2817 2.33765 89.2316 2.55677C89.1814 2.77589 89.1675 3.00535 89.1907 3.23132V30.76C89.2486 33.6523 88.7964 36.5254 87.8656 39.178C87.0625 41.4226 85.7318 43.3138 84.0479 44.604C82.6019 45.6694 80.974 46.2973 79.2962 46.4369V53.3625C81.892 53.1995 84.4315 52.3629 86.7506 50.9066C89.3628 49.2256 91.4946 46.5876 92.8567 43.3507C94.3277 39.97 95.0612 35.8287 95.0574 30.9266V3.23132C95.0806 3.00535 95.0667 2.77589 95.0165 2.55677C94.9663 2.33765 94.8809 2.13339 94.7655 1.9563ZM69.9329 42.3583C68.0532 39.5909 67.1134 35.7055 67.1134 30.702V3.23132C67.1352 3.00539 67.1207 2.77633 67.0706 2.55745C67.0205 2.33856 66.9358 2.13422 66.8215 1.9563C66.5129 1.7042 66.1446 1.58929 65.7766 1.63031H62.5485C62.1952 1.58966 61.8417 1.70511 61.5503 1.9563C61.436 2.13422 61.3513 2.33856 61.3012 2.55745C61.2511 2.77633 61.2365 3.00539 61.2584 3.23132V31.1367C61.2584 36.0919 61.9628 40.2453 63.3716 43.5971C64.6394 46.7746 66.682 49.3754 69.209 51.0298C71.635 52.5438 74.3045 53.3609 77.0196 53.4204V46.4731C73.9802 46.2268 71.618 44.8552 69.9329 42.3583Z" fill="black"/>
<path d="M110.678 52.3048C110.387 52.5571 110.034 52.6727 109.68 52.6308H106.394C106.04 52.674 105.686 52.5583 105.396 52.3048C105.279 52.1285 105.192 51.9245 105.141 51.7053C105.09 51.4861 105.075 51.2563 105.098 51.0298V3.21681C105.075 2.99034 105.09 2.76049 105.141 2.54128C105.192 2.32208 105.279 2.1181 105.396 1.9418C105.686 1.68827 106.04 1.57259 106.394 1.6158H117.607C128.761 1.6158 134.338 6.88489 134.338 17.4231C134.338 20.9197 133.633 23.7981 132.225 26.0584C130.709 28.4052 128.665 30.138 126.352 31.0353L137.799 52.6018H130.298L118.781 29.3908C118.581 29.1039 118.459 28.7468 118.431 28.3693C118.431 27.9781 118.722 27.7608 119.306 27.7173C125.218 26.9349 128.173 23.6556 128.173 17.8795C128.173 14.576 127.243 12.1612 125.383 10.6351C123.523 9.10891 120.834 8.34342 117.316 8.33859H111.677C111.471 8.30609 111.262 8.37073 111.093 8.5197C110.973 8.72998 110.921 8.9885 110.947 9.24414V51.0298C110.972 51.2538 110.961 51.4817 110.915 51.7005C110.869 51.9193 110.789 52.1247 110.678 52.3048Z" fill="black"/>
<path d="M181.575 45.524C181.743 45.6764 181.952 45.7414 182.158 45.7052H199.455C199.808 45.6619 200.163 45.7776 200.453 46.0312C200.569 46.2082 200.654 46.4125 200.704 46.6316C200.754 46.8507 200.768 47.0802 200.745 47.3062V51.0298C200.768 51.2557 200.754 51.4852 200.704 51.7043C200.654 51.9235 200.569 52.1277 200.453 52.3048C200.163 52.5583 199.808 52.674 199.455 52.6308H176.846C176.493 52.674 176.139 52.5583 175.848 52.3048C175.733 52.1277 175.647 51.9235 175.597 51.7043C175.547 51.4852 175.533 51.2557 175.556 51.0298V3.21681C175.533 2.99084 175.547 2.76139 175.597 2.54226C175.647 2.32314 175.733 2.11888 175.848 1.9418C176.139 1.68827 176.493 1.57259 176.846 1.6158H180.133C180.486 1.57388 180.84 1.68945 181.131 1.9418C181.247 2.11888 181.332 2.32314 181.382 2.54226C181.432 2.76139 181.446 2.99084 181.423 3.21681V44.9083C181.408 45.1302 181.462 45.3508 181.575 45.524Z" fill="black"/>
<path d="M24.4296 1.45654H18.5571V8.37494H24.4296V1.45654Z" fill="black"/>
<path d="M24.4296 46.5093H18.5571V53.4277H24.4296V46.5093Z" fill="black"/>
<path d="M51.1479 46.5093H45.2754V53.4277H51.1479V46.5093Z" fill="black"/>
<path d="M51.1479 1.45654H45.2754V8.37494H51.1479V1.45654Z" fill="black"/>
<path d="M67.1132 1.45654H61.2407V8.37494H67.1132V1.45654Z" fill="black"/>
<path d="M95.0629 1.45654H89.1904V8.37494H95.0629V1.45654Z" fill="black"/>
<path d="M110.97 45.7124H105.098V52.6308H110.97V45.7124Z" fill="black"/>
<path d="M200.745 45.7124H194.872V52.6308H200.745V45.7124Z" fill="black"/>
<path d="M181.429 45.7124H175.556V52.6308H181.429V45.7124Z" fill="black"/>
<path d="M181.429 1.45654H175.556V8.37494H181.429V1.45654Z" fill="black"/>
<path d="M167.214 1.45654H142.382V8.5488H167.214V1.45654Z" fill="black"/>
<path d="M167.214 23.5811H142.382V30.6733H167.214V23.5811Z" fill="black"/>
<path d="M167.214 45.6255H142.382V52.7177H167.214V45.6255Z" fill="black"/>
</svg>
